  
<svg width="391" height="350" viewBox="0 0 391 350" fill="none" xmlns="http://www.w3.org/2000/svg">
<path d="M84.0909 293.112C80.1698 289.097 78.194 285.697 77.075 275.902C76.3756 263.318 76.1876 233.626 76.2051 235.714C80.8736 264.656 83.4789 263.469 93.2399 289.896C94.6518 298.249 91.251 300.737 84.0909 293.112V293.112ZM173.732 265.476C175.039 262.708 175.953 260.56 176.727 258.709C170.148 256.146 163.63 252.929 156.886 249.697C129.067 236.362 103.735 214.517 78.4869 192.375C69.6263 184.599 65.854 178.09 61.4739 166.132C62.1559 169.51 62.8377 172.888 63.5065 176.272C63.4191 176.741 63.3579 177.238 63.4016 177.837C63.441 178.392 63.4628 178.948 63.4978 179.499C62.6104 191.668 67.5237 253.852 67.0997 253.345C66.3216 252.411 68.0658 270.209 70.6055 276.248C60.416 260.263 59.5637 243.561 57.0895 221.651C57.2863 216.028 57.3692 210.453 55.0393 207.48C52.3379 204.031 48.4475 191.738 45.8248 194.512C43.084 197.41 40.6973 214.037 37.0866 214.857C34.6649 215.407 32.2739 214.835 29.9833 213.626C28.602 212.612 27.2513 211.435 25.9268 210.221C28.1867 213.092 30.7745 215.164 33.8257 215.958C40.8809 217.798 46.2575 219.482 50.4889 229.579C55.3629 241.213 54.5936 251.175 59.1659 259.297C64.4639 268.709 73.5343 281.968 80.0606 289.275C96.8113 308.022 116.985 322.841 135.855 335.734C137.145 336.613 139.23 338.421 140.34 339.592C134.137 329.598 165.571 277.37 173.732 265.476Z" fill="#D57A6D"/>
<path d="M316.751 246.264C318.088 251.083 318.189 256.28 317.275 260.942C320.523 270.052 321.804 282.912 322.783 287.839C322.949 287.191 322.945 289.242 322.634 291.287C322.049 295.178 320.366 299.063 316.694 284.552C315.256 278.87 313.87 274.59 312.545 271.396L312.148 271.897C310.29 273.851 308.275 275.157 306.155 275.972C304.004 277.202 301.582 278.271 299.008 279.199C298.181 298.988 298.715 319.489 294.816 318.523C271.954 312.868 257.717 329.856 254.206 331.238C244.555 335.037 249.315 302.431 257.253 281.26L257.1 281.217C248.436 278.373 243.103 271.887 234.942 267.796C234.929 269.955 234.846 272.156 234.588 274.439C232.083 296.689 200.829 327.039 188.821 338.215C173.941 352.063 162.755 347.373 145.414 342.031C174.278 352.727 204.593 352.322 233.718 342.819C240.992 340.444 248.227 337.67 255.378 334.502C260.838 331.588 263.898 324.233 301.167 321.777C301.167 321.777 313.031 312.441 317.537 306.532C324.09 293.802 324.938 289.145 324.392 280.397C323.246 271.822 318.464 240.911 316.724 239.135C311.632 233.938 307.47 231.127 303.969 230.015C308.979 234.284 314.185 237.02 316.751 246.264" fill="#D57A6D"/>
<path d="M17.1984 188.818C15.3974 181.587 13.7888 174.232 12.1277 166.898C14.7198 181.22 18.23 199.844 25.4819 209.633C22.3958 203.081 19.6026 196.125 17.1984 188.818" fill="#D57A6D"/>
<path d="M7.02006 104.342C6.74904 100.445 6.90635 96.7165 7.72815 93.376C7.51395 93.8833 7.32168 94.4067 7.13809 94.9301C6.29444 97.7849 5.67805 100.753 5.2453 103.802C4.8956 107.385 4.86063 111.541 5.13602 116.646C5.595 125.161 6.67033 133.969 7.97734 142.657C6.89764 133.148 6.20266 123.537 6.39062 114.066C6.50427 110.796 6.73592 107.558 7.02006 104.342Z" fill="#D57A6D"/>
<path d="M171.888 252.276C174.061 253.215 176.242 254.03 178.432 254.731L178.454 254.683C176.426 253.841 174.227 252.929 171.893 251.947L171.888 252.276" fill="#D57A6D"/>
<path d="M82.9203 297.072C99.2208 315.858 116.999 329.246 135.507 337.875C116.282 327.503 95.5184 310.682 79.1567 292.593C80.4069 294.131 81.6614 295.626 82.9203 297.072" fill="#D57A6D"/>
<path d="M45.5923 148.317C43.5422 149.067 41.8199 151.717 39.7872 152.667C36.2203 154.334 32.7408 153.525 29.235 151.28C28.3171 150.686 27.351 149.855 26.3718 148.911C27.0188 166.752 29.3311 188.17 35.9186 197.997C36.4257 198.872 42.0297 187.07 44.7487 182.105C47.1747 187.453 53.8408 207.328 56.2844 202.649C57.4734 200.366 53.5218 176.708 52.8442 173.951C51.4717 163.222 50.7591 155.543 50.287 148.533C48.7571 147.907 47.1747 147.745 45.5923 148.317" fill="#D57A6D"/>
<path d="M35.4847 146.569C32.9013 147.324 30.3966 146.671 28.517 144.972C28.2241 144.707 27.3542 143.811 26.1958 142.478C26.2045 143.067 26.2221 143.687 26.2352 144.286C29.0197 146.634 32.1145 147.659 35.4847 146.569Z" fill="#D57A6D"/>
<path d="M43.534 138.495C42.5111 140.584 41.3746 142.192 40.1899 143.465C42.0434 141.76 43.8444 139.947 45.9557 139.056C44.5263 138.641 43.534 138.495 43.534 138.495Z" fill="#D57A6D"/>
<path d="M29.9808 213.627C32.2713 214.835 34.6624 215.407 37.0841 214.857C40.6947 214.037 43.0815 197.41 45.8222 194.512C48.445 191.738 52.3354 204.032 55.0368 207.48C57.3667 210.453 57.2837 216.028 57.087 221.651C59.5611 243.561 60.4135 260.263 70.6029 276.248C68.0632 270.209 66.3191 252.411 67.0972 253.345C67.5212 253.852 62.6079 191.668 63.4952 179.499C63.4603 178.948 63.4384 178.393 63.3991 177.837C63.3554 177.238 63.4166 176.741 63.504 176.272C62.8352 172.888 62.1533 169.51 61.4714 166.132C60.8419 164.399 60.1949 162.559 59.5174 160.584C57.5809 154.907 54.1276 150.104 50.2853 148.534C50.7574 155.544 51.4699 163.223 52.8425 173.951C53.5201 176.709 57.4716 200.367 56.2827 202.65C53.8391 207.329 47.173 187.453 44.7469 182.105C42.028 187.07 36.4239 198.872 35.9169 197.998C29.3294 188.171 27.017 166.752 26.3701 148.911C18.0428 140.887 8.17686 120.99 7.01848 104.341C6.73434 107.558 6.50269 110.796 6.38904 114.066C6.20107 123.537 6.89605 133.148 7.97576 142.657C8.96804 149.241 10.0827 155.765 11.2323 161.987C11.5208 163.541 11.8181 165.198 12.1241 166.898C13.7852 174.232 15.3938 181.587 17.1948 188.819C19.599 196.126 22.3922 203.082 25.4783 209.633L25.9242 210.221C27.2487 211.435 28.5994 212.612 29.9808 213.627" fill="#D57A6D"/>
<path d="M70.6029 276.248C60.4135 260.263 59.5611 243.561 57.087 221.651C57.1351 220.264 57.1744 218.888 57.1744 217.544C57.1788 213.438 56.794 209.719 55.0368 207.48C54.98 207.404 54.9188 207.323 54.8576 207.237C54.8489 207.226 54.8401 207.215 54.8313 207.199C54.8182 207.183 54.8096 207.167 54.7964 207.151C54.779 207.129 54.7658 207.108 54.7483 207.086C54.7439 207.075 54.7396 207.07 54.7308 207.059C54.7177 207.043 54.709 207.021 54.6959 207.005C53.5638 205.332 52.2567 202.375 50.9366 199.714C49.4941 196.816 48.034 194.269 46.762 194.113C46.7227 194.107 46.6833 194.107 46.644 194.107C46.6396 194.107 46.6396 194.107 46.6396 194.107C46.3642 194.107 46.0976 194.226 45.8485 194.485C45.8397 194.49 45.831 194.501 45.8222 194.512C43.0814 197.41 40.6947 214.037 37.0841 214.857C37.0535 214.862 37.0229 214.868 36.9923 214.879C36.9792 214.879 36.9616 214.884 36.9441 214.889C36.3671 215.008 35.7902 215.067 35.2131 215.067C35.2131 215.067 35.2088 215.067 35.2044 215.067C33.4253 215.067 31.6768 214.522 29.9807 213.627C28.5994 212.612 27.2487 211.435 25.9242 210.221L25.4783 209.633C22.3922 203.082 19.599 196.126 17.1948 188.819C15.3938 181.587 13.7852 174.232 12.1241 166.898C11.8181 165.198 11.5208 163.541 11.2323 161.987C10.0827 155.765 8.96802 149.241 7.97575 142.657C7.01407 134.19 6.3584 125.636 6.3584 117.18C6.3584 116.144 6.37154 115.102 6.38903 114.066C6.50268 110.796 6.73433 107.558 7.01846 104.341C8.17685 120.99 18.0428 140.887 26.3701 148.911C27.017 166.752 29.3294 188.171 35.9169 197.998C35.9343 198.031 35.9563 198.041 35.9869 198.041C36.8174 198.041 42.1241 186.892 44.7469 182.105C46.9238 186.898 52.5015 203.357 55.3953 203.357C55.7275 203.357 56.0291 203.136 56.2826 202.65C56.4356 202.353 56.5012 201.706 56.5012 200.788C56.5056 194.615 53.4326 176.353 52.8425 173.951C51.4699 163.223 50.7574 155.544 50.2853 148.534C54.1276 150.104 57.5809 154.907 59.5173 160.584C60.1949 162.559 60.8419 164.399 61.4714 166.132C62.1533 169.51 62.8352 172.888 63.504 176.272C63.4384 176.639 63.3816 177.022 63.3816 177.459C63.3816 177.578 63.386 177.707 63.3991 177.837C63.4384 178.393 63.4603 178.948 63.4952 179.499C63.4909 179.574 63.4821 179.65 63.4777 179.731C63.434 180.427 63.4078 181.274 63.3947 182.251C63.3903 182.64 63.3859 183.05 63.3859 183.482C63.3859 200.697 67.119 249.103 67.1234 253.086C67.1234 253.259 67.1146 253.345 67.1015 253.345H67.0971C67.0928 253.34 67.0928 253.34 67.0928 253.34C67.0753 253.318 67.0579 253.307 67.0404 253.307C66.9529 253.307 66.9092 253.653 66.9092 254.268C66.9136 257.943 68.4828 271.202 70.6029 276.248" fill="#E09E86"/>
<path d="M26.2356 144.287C26.2225 143.688 26.205 143.067 26.1962 142.479C23.6653 139.581 19.5869 134.4 15.9631 127.692C18.6252 134.357 22.0785 140.784 26.2356 144.287" fill="#D57A6D"/>
<path d="M26.2356 144.287C22.0785 140.784 18.6252 134.357 15.9631 127.692C19.5869 134.4 23.6653 139.581 26.1962 142.479C26.205 143.067 26.2225 143.688 26.2356 144.287" fill="#E09E86"/>
<path d="M76.2059 235.714C76.1884 233.625 76.3764 263.317 77.0758 275.902C78.1949 285.697 80.1707 289.096 84.0917 293.111C91.2518 300.737 94.6527 298.249 93.2407 289.895C83.4797 263.468 80.8744 264.655 76.2059 235.714" fill="#D57A6D"/>
<path d="M90.9622 297.682C89.441 297.682 87.2817 296.398 84.5409 293.581C84.484 293.522 84.4272 293.468 84.3703 293.403H84.366C84.3179 293.354 84.2741 293.306 84.226 293.257C84.1823 293.209 84.1387 293.16 84.0906 293.112C80.1696 289.097 78.1938 285.697 77.0747 275.902C77.066 275.719 77.0572 275.535 77.0485 275.346C77.0397 275.201 77.0309 275.055 77.0222 274.904C77.0091 274.65 77.0004 274.391 76.9873 274.127C76.9742 273.851 76.961 273.571 76.9479 273.285V273.279C76.9479 273.242 76.9436 273.198 76.9436 273.161C76.9348 272.972 76.926 272.783 76.9173 272.594C76.3709 259.378 76.2048 235.914 76.2048 235.612C76.2048 235.612 76.2048 235.644 76.2048 235.714C80.8733 264.656 83.4786 263.468 93.2397 289.895C93.4495 291.136 93.5544 292.253 93.5544 293.225C93.5544 296.069 92.667 297.672 90.9754 297.682C90.971 297.682 90.9666 297.682 90.9622 297.682" fill="#E09E86"/>
<path d="M257.254 281.261C249.315 302.431 244.555 335.037 254.207 331.238C257.717 329.856 271.954 312.868 294.816 318.524C298.715 319.49 298.182 298.988 299.008 279.199C285.78 283.986 268.125 284.779 257.254 281.261" fill="#D57A6D"/>
<path d="M252.769 331.541C249.989 331.541 248.826 327.591 248.826 321.6C248.822 311.012 252.459 294.051 257.254 281.261C261.756 282.718 267.426 283.436 273.463 283.436C281.995 283.436 291.262 282.006 299.008 279.2C298.969 280.193 298.93 281.186 298.895 282.173C298.239 300.516 298.51 318.519 295.087 318.557C295.083 318.557 295.079 318.557 295.079 318.557C294.991 318.557 294.904 318.546 294.816 318.524C291.577 317.72 288.509 317.375 285.619 317.375H285.615C285.602 317.375 285.589 317.375 285.58 317.375C268.755 317.391 258.019 329.145 254.57 331.061C254.544 331.077 254.513 331.093 254.487 331.109C254.461 331.12 254.435 331.136 254.404 331.147C254.378 331.163 254.351 331.174 254.325 331.19C254.303 331.201 254.277 331.206 254.255 331.217C254.242 331.222 254.225 331.233 254.207 331.239C253.687 331.444 253.206 331.541 252.769 331.541" fill="#E09E86"/>
<path d="M322.785 287.839C321.806 282.912 320.525 270.052 317.278 260.943C316.469 265.082 314.843 268.768 312.548 271.396C313.872 274.591 315.258 278.87 316.696 284.553C320.368 299.064 322.051 295.178 322.637 291.287C322.947 289.242 322.951 287.192 322.785 287.839Z" fill="#D57A6D"/>
<path d="M321.046 294.865C320.272 294.865 319.218 293.273 317.802 288.584C317.767 288.465 317.732 288.346 317.693 288.222C317.693 288.217 317.688 288.206 317.688 288.2C317.627 287.995 317.566 287.785 317.505 287.569C317.501 287.558 317.501 287.548 317.496 287.537C317.452 287.38 317.404 287.218 317.361 287.056C317.334 286.959 317.304 286.862 317.278 286.765C317.269 286.733 317.26 286.7 317.251 286.668C317.243 286.63 317.229 286.587 317.221 286.549C317.208 286.501 317.19 286.447 317.177 286.393C317.177 286.387 317.173 286.377 317.168 286.366C317.138 286.242 317.103 286.112 317.068 285.977C317.059 285.961 317.055 285.939 317.05 285.918C317.028 285.831 317.002 285.74 316.98 285.653C316.972 285.621 316.963 285.599 316.958 285.567C316.954 285.545 316.945 285.524 316.941 285.508C316.91 285.394 316.884 285.286 316.854 285.178C316.845 285.135 316.836 285.092 316.823 285.054C316.805 284.99 316.792 284.93 316.775 284.871C316.762 284.806 316.744 284.747 316.727 284.682C316.718 284.639 316.705 284.596 316.696 284.552C315.258 278.87 313.872 274.59 312.548 271.396C314.843 268.768 316.469 265.082 317.278 260.943C320.525 270.052 321.806 282.912 322.785 287.839C322.807 287.753 322.825 287.715 322.842 287.715C322.877 287.715 322.895 287.909 322.895 288.233C322.895 288.875 322.82 290.03 322.65 291.201C322.646 291.228 322.641 291.26 322.637 291.287C322.366 293.079 321.867 294.865 321.046 294.865" fill="#E09E86"/>
<path d="M145.416 342.031C144.384 341.718 143.34 341.394 142.26 341.075C141.709 340.913 141.281 340.611 140.905 340.255L140.826 340.153C142.356 340.784 143.877 341.464 145.416 342.031" fill="#8F4340"/>
<path d="M179.149 254.974L178.454 254.683L178.432 254.731L179.149 254.974" fill="#D57A6D"/>
<path d="M179.149 254.974L178.432 254.731L178.454 254.683L179.149 254.974" fill="#C9655A"/>
<path d="M188.822 338.216C200.83 327.039 232.085 296.689 234.589 274.439C234.847 272.157 234.93 269.955 234.944 267.796L234.082 267.343C226.45 263.787 217.323 263.905 208.655 264.024C204.594 264.078 200.629 264.132 196.97 263.808C189.972 263.193 183.319 261.277 176.727 258.709C175.953 260.56 175.04 262.707 173.733 265.476C165.572 277.37 134.138 329.597 140.341 339.592L140.826 340.153C142.356 340.784 143.877 341.464 145.416 342.031C162.756 347.373 173.943 352.063 188.822 338.216" fill="#D57A6D"/>
<path d="M168.5 347.325C161.987 347.325 155.216 345.086 147.111 342.56C147.085 342.549 147.059 342.544 147.033 342.533C146.954 342.512 146.875 342.485 146.792 342.463C146.338 342.317 145.879 342.177 145.415 342.031C143.877 341.465 142.355 340.785 140.825 340.153L140.34 339.592C139.789 338.707 139.536 337.482 139.536 335.987C139.54 320.634 166.297 276.312 173.732 265.476C175.039 262.708 175.953 260.56 176.727 258.709C183.319 261.278 189.972 263.193 196.97 263.809C199.226 264.008 201.599 264.068 204.043 264.068C205.56 264.068 207.098 264.046 208.654 264.025C210.211 264.003 211.78 263.981 213.354 263.981C220.553 263.981 227.822 264.424 234.082 267.343L234.943 267.797C234.93 269.955 234.847 272.157 234.589 274.44C232.084 296.69 200.83 327.04 188.822 338.216C188.791 338.243 188.765 338.27 188.735 338.297C181.504 344.994 175.149 347.32 168.526 347.325C168.517 347.325 168.509 347.325 168.5 347.325Z" fill="#C9655A"/>
<path d="M211.809 89.2904C214.668 91.7728 217.431 94.4118 220.15 97.1208C217.431 94.4118 214.668 91.7728 211.809 89.2904Z" fill="#902020"/>
<path d="M200.204 88.1188C191.925 80.6932 183.379 73.9962 174.764 67.5852L173.701 66.9862C165.894 61.4602 157.904 56.8406 149.756 53.5595C153.41 60.6127 162.052 76.716 165.103 79.1121C167.179 80.7472 160.216 80.731 159.971 83.8825C159.517 93.2617 160.964 98.6745 163.044 107.206C165.566 117.552 171.726 132.683 175.655 143.282C185.08 146.299 194.29 150.427 203.229 155.775C203.693 159.59 205.188 163.233 208.025 165.538C227.249 181.112 254.998 192.855 267.181 223.113C268.151 225.525 268.851 227.759 269.393 229.891C273.419 230.625 277.112 231.229 280.181 231.677C282.179 231.969 276.308 233.194 270.219 233.917C272.448 249.216 263.103 256.42 252.437 258.833C251.068 258.207 249.727 257.586 248.437 256.982C237.57 251.903 227.739 247.122 216.535 247.662C207.172 248.115 199.645 247.365 190.675 243.609C184.192 240.895 175.07 237.198 165.33 232.735L164.749 233.798C161.549 239.378 171.162 249.815 171.892 251.947C174.226 252.929 176.425 253.841 178.453 254.683L179.148 254.974C181.967 255.838 184.8 256.561 187.659 256.933C201.568 258.746 215.281 256.577 229.208 259.205C237.972 260.862 246.142 266.226 254.898 268.638C269.874 272.756 282.362 270.84 293.046 268.919C300.153 267.645 306.466 266.371 312.174 266.873C314.657 267.089 313.87 270.77 308.603 274.434C307.834 274.968 307.012 275.481 306.155 275.972C308.275 275.157 310.29 273.851 312.148 271.898L312.546 271.396C314.841 268.768 316.467 265.082 317.276 260.943C318.189 256.28 318.089 251.083 316.751 246.264C314.185 237.02 308.979 234.284 303.97 230.015C303.2 229.362 302.431 228.671 301.679 227.91C292.77 218.909 287.42 204.889 278.162 196.702C276.719 175.613 265.83 157.389 255.838 142.268C247.497 129.645 238.978 117.913 229.802 107.401C228.093 106.624 226.38 105.852 224.662 105.123C216.71 98.7825 208.401 93.6179 200.204 88.1188" fill="#902020"/>
<path d="M221.859 98.8364C224.561 101.599 227.214 104.433 229.802 107.396C227.214 104.433 224.561 101.594 221.859 98.8364Z" fill="#902020"/>
<path d="M11.8645 86.1012L12.1004 86.5921C12.1092 96.349 9.81863 108.734 12.7649 118.518C13.6479 121.443 14.7232 124.595 15.9647 127.692C19.5884 134.4 23.6668 139.581 26.1978 142.479C27.3561 143.811 28.2261 144.707 28.5189 144.972C30.3986 146.672 32.9033 147.325 35.4867 146.569L35.6704 146.531C37.3358 145.954 38.7826 144.756 40.1902 143.466C41.3748 142.193 42.5114 140.584 43.5343 138.496C43.5343 138.496 44.5266 138.642 45.956 139.057C46.8215 138.696 47.7219 138.442 48.7229 138.496C54.1083 138.755 59.8172 144.993 63.1437 151.388C67.4756 159.726 68.2231 171.339 73.2108 178.819C77.6563 185.473 84.0384 189.671 89.2009 194.733C96.5796 201.97 103.954 205.845 111.512 212.644C118.982 219.368 126.912 225.04 134.868 230.113C139.068 232.784 143.287 235.623 147.535 238.418C151.303 238.272 155.955 235.056 160.641 230.545C150.941 225.925 140.952 220.593 132.568 214.722C125.53 212.159 81.1141 168.015 77.5165 164.156C74.8019 161.237 76.9526 149.499 64.2322 132.63C59.9833 126.996 50.5414 128.982 50.5414 128.982C48.6749 135.15 41.0296 135.933 37.1085 132.387C36.2911 131.648 31.3209 126.44 26.5431 118.577C26.6917 116.473 26.4208 114.12 25.5028 111.578C21.7872 101.309 20.0649 91.6703 26.5869 84.331C27.9769 82.766 29.5243 81.4762 31.1592 80.4185C36.8943 80.3645 42.5201 81.1794 48.0672 82.6796L49.112 83.1384C53.4133 84.8437 57.7452 86.371 62.0815 87.8551C69.1062 88.0062 82.5741 88.6429 82.8669 88.9128L83.8636 89.7546C95.5043 94.3957 94.748 79.4309 91.6925 64.4663C88.8424 50.5163 83.9904 36.5718 85.3061 38.4929C95.5786 53.5007 91.8717 89.9919 105.659 96.4624C112.067 98.5724 118.799 99.1714 124.932 100.186C133.128 101.535 146.945 107.725 152.694 97.8278C162.713 80.5967 149.625 61.725 145.595 52.0167C141.223 50.5218 136.813 49.394 132.354 48.8004L132.883 47.7967C134.977 42.929 135.331 36.2911 133.626 30.7705C130.754 21.4777 124.241 19.0655 117.977 18.5798C101.021 6.43763 78.0716 0.992432 59.5199 6.59942C62.7022 4.4624 66.1074 2.95144 69.5826 1.95309C60.9974 4.39232 52.7882 9.92916 47.429 20.447C42.695 29.7398 41.047 40.9806 41.4185 52.4267C41.6021 58.0606 42.2316 63.7325 43.307 69.2639C43.7965 71.7679 44.356 74.245 44.9942 76.6681C43.8795 76.5332 42.7693 76.3442 41.6546 76.0852C34.7917 75.1678 26.5693 74.0615 19.9993 77.2346C18.9196 78.1466 16.5286 80.0624 16.3319 80.3052C14.6402 82.3721 13.154 84.2664 11.8645 86.1012" fill="#902020"/>
<path d="M157.145 105.35C153.718 110.871 148.508 113.834 141.002 113.278C132.159 112.619 121.48 112.414 111.291 109.7C106.618 108.734 102.076 106.797 97.7134 103.99C95.5453 102.663 93.4689 101.103 91.5018 99.3061C89.8058 97.8437 80.9714 95.669 72.7534 93.4187C85.3077 104.973 98.0587 115.987 111.334 125.237C120.96 131.944 131.092 138.512 141.382 141.782C152.223 145.225 163.383 144.216 174.219 143.342C170.932 134.497 167.584 126.634 165.311 121.222C162.072 113.521 157.434 112.706 157.145 105.35" fill="#902020"/>
<path d="M259.27 234.025C171.425 193.325 176.465 212.32 165.331 232.735C175.07 237.198 184.193 240.895 190.676 243.609C199.646 247.365 207.173 248.116 216.536 247.662C227.74 247.123 237.571 251.904 248.438 256.982C249.727 257.586 251.069 258.207 252.438 258.833C263.103 256.421 272.449 249.216 270.22 233.917C265.556 234.468 260.765 234.721 259.27 234.025" fill="#902020"/>
<path d="M252.438 258.833C251.069 258.207 249.727 257.586 248.438 256.982C248.324 256.933 248.215 256.879 248.101 256.826C248.088 256.82 248.075 256.815 248.058 256.804C247.926 256.745 247.795 256.685 247.664 256.62C247.568 256.577 247.472 256.529 247.371 256.485C247.314 256.458 247.262 256.432 247.205 256.405C247.148 256.378 247.087 256.351 247.03 256.324C237.296 251.769 228.313 247.63 218.315 247.619C218.302 247.619 218.289 247.619 218.276 247.619C218.276 247.619 218.276 247.619 218.272 247.619C217.743 247.619 217.205 247.635 216.672 247.657C216.624 247.657 216.58 247.662 216.536 247.662C216.431 247.668 216.327 247.673 216.222 247.678C214.77 247.743 213.367 247.781 211.99 247.781C211.99 247.781 211.986 247.781 211.981 247.781C204.808 247.781 198.479 246.788 191.244 243.841C191.174 243.814 191.104 243.788 191.03 243.755C190.912 243.707 190.794 243.658 190.676 243.609C184.193 240.895 175.07 237.198 165.331 232.735C165.353 232.698 165.371 232.665 165.388 232.633C165.406 232.6 165.423 232.563 165.441 232.53C165.441 232.53 165.441 232.53 165.445 232.53C171.665 221.014 172.854 210.005 188.626 210C188.63 210 188.63 210 188.635 210C188.661 210 188.683 210 188.709 210C200.245 210.027 219.557 215.909 254.256 231.721C254.274 231.732 254.295 231.737 254.313 231.748C254.947 232.034 255.589 232.331 256.232 232.622C257.032 232.989 257.84 233.367 258.658 233.745C258.78 233.799 258.903 233.858 259.025 233.912C259.104 233.95 259.187 233.987 259.27 234.025C259.279 234.031 259.283 234.031 259.292 234.036C259.939 234.327 261.176 234.446 262.736 234.446C262.741 234.446 262.745 234.446 262.749 234.446C262.784 234.446 262.815 234.446 262.85 234.446C264.581 234.441 266.701 234.29 268.865 234.068C269.206 234.031 269.542 233.993 269.883 233.955C269.918 233.95 269.949 233.944 269.984 233.944C270.063 233.934 270.141 233.923 270.22 233.917C270.447 235.471 270.552 236.939 270.552 238.332C270.539 250.63 262.019 256.664 252.438 258.833" fill="#7C1F21"/>
<path d="M186.581 200.308C186.052 208.489 211.607 210.701 223.186 216.686C234.416 222.493 254.332 227.139 269.391 229.891C268.848 227.76 268.149 225.526 267.179 223.113C254.996 192.855 227.247 181.112 208.022 165.538C205.185 163.233 203.69 159.591 203.227 155.775C194.288 150.427 185.078 146.299 175.653 143.283C175.972 144.141 176.304 145.026 176.588 145.819C183.084 163.849 187.53 180.993 186.581 200.308" fill="#902020"/>
<path d="M269.391 229.891C254.332 227.139 234.416 222.493 223.186 216.686C211.72 210.755 186.551 208.532 186.572 200.545C186.572 200.464 186.573 200.389 186.581 200.308C186.664 198.57 186.708 196.854 186.708 195.154C186.717 177.907 182.498 162.224 176.588 145.819C176.304 145.026 175.972 144.141 175.653 143.283C185.078 146.299 194.288 150.427 203.227 155.775C203.69 159.591 205.185 163.233 208.022 165.538C227.247 181.112 254.996 192.855 267.179 223.113C268.149 225.526 268.848 227.76 269.391 229.891" fill="#7C1F21"/>
<path d="M182.136 202.871C189.065 189.412 181.8 163.73 174.22 143.342C163.384 144.216 152.224 145.226 141.383 141.783C131.093 138.512 120.96 131.945 111.335 125.237C98.0593 115.987 85.3083 104.973 72.754 93.4191C65.7687 91.5087 59.225 89.5441 57.9005 87.9198C57.8087 87.8064 59.531 87.8013 62.0794 87.8552C57.7431 86.3712 53.4112 84.8438 49.1099 83.1385L48.0651 82.6798C42.518 81.1795 36.8922 80.3647 31.1571 80.4187C29.5222 81.4764 27.9748 82.7661 26.5848 84.3311C20.0628 91.6704 21.7851 101.309 25.5007 111.578C26.4187 114.12 26.6896 116.473 26.541 118.577C31.3188 126.44 36.289 131.648 37.1064 132.387C41.0275 135.933 48.6728 135.15 50.5393 128.982C50.5393 128.982 59.9812 126.996 64.2301 132.63C76.9504 149.5 74.7998 161.237 77.5144 164.157C81.112 168.015 125.528 212.159 132.566 214.722C140.95 220.593 150.939 225.925 160.638 230.545C170.679 220.869 180.777 205.505 182.136 202.871" fill="#902020"/>
<path d="M160.638 230.545C150.938 225.925 140.95 220.593 132.566 214.722C125.528 212.159 81.1115 168.015 77.514 164.157C74.7994 161.237 76.95 149.5 64.2296 132.63C64.2122 132.608 64.1947 132.587 64.1772 132.565C64.1423 132.517 64.1029 132.474 64.068 132.425C64.0417 132.393 64.0155 132.36 63.9937 132.333C63.9412 132.274 63.8931 132.215 63.8407 132.155C63.8407 132.15 63.8363 132.15 63.8363 132.15C61.3228 129.284 57.3624 128.653 54.4162 128.642C54.3899 128.642 54.3681 128.642 54.3419 128.642C54.3375 128.642 54.3331 128.642 54.3288 128.642C52.1475 128.642 50.5389 128.982 50.5389 128.982C50.5302 129.02 50.517 129.058 50.5039 129.095C50.4864 129.155 50.4646 129.219 50.4428 129.279C50.4428 129.284 50.4428 129.284 50.4428 129.284C49.2232 132.824 46.0452 134.492 42.8629 134.497C42.8586 134.497 42.8498 134.497 42.8454 134.497C40.7429 134.497 38.6403 133.774 37.106 132.387C36.2886 131.648 31.3184 126.44 26.5406 118.577C26.5668 118.216 26.58 117.844 26.58 117.471C26.5756 115.658 26.2565 113.688 25.5003 111.578C23.5857 106.284 22.2 101.158 22.2 96.4248C22.2 91.9781 23.4239 87.8874 26.5843 84.3311C27.9744 82.7661 29.5218 81.4764 31.1567 80.4186C31.3403 80.4186 31.5239 80.4186 31.7031 80.4186C37.2502 80.4186 42.6968 81.2281 48.0647 82.6798L49.1095 83.1385C53.4108 84.8438 57.7427 86.3712 62.079 87.8552C61.3228 87.839 60.6409 87.8282 60.0595 87.8228C59.8934 87.8228 59.7404 87.8228 59.5918 87.8228C59.5787 87.8228 59.5655 87.8228 59.548 87.8228C59.5437 87.8228 59.5349 87.8228 59.5305 87.8228C58.5208 87.8228 57.9132 87.8496 57.8957 87.909V87.9145L57.9001 87.9198C59.2246 89.5441 65.7683 91.5087 72.7536 93.419C85.3079 104.973 98.0589 115.987 111.334 125.237C120.96 131.945 131.093 138.512 141.383 141.783C147.161 143.617 153.028 144.189 158.889 144.189C164.026 144.189 169.158 143.752 174.22 143.342C179.653 157.956 184.925 175.29 184.925 188.894C184.92 194.269 184.099 199.056 182.136 202.871C180.776 205.505 170.679 220.869 160.638 230.545" fill="#7C1F21"/>
<path d="M117.975 18.5793C124.239 19.065 130.752 21.4772 133.624 30.77C135.329 36.2906 134.975 42.9285 132.881 47.7962L132.352 48.7999C136.811 49.3935 141.222 50.5213 145.593 52.0162C144.985 50.5591 144.574 49.2962 144.487 48.2871C144.347 46.6681 147.429 48.7134 148.089 50.2676C148.185 50.4834 148.81 51.7355 149.754 53.5595C157.902 56.8406 165.893 61.4602 173.7 66.9862L174.762 67.5852C183.378 73.9963 191.924 80.6932 200.203 88.1189C208.399 93.6179 216.709 98.7825 224.66 105.123C226.378 105.852 228.092 106.624 229.801 107.401V107.395C227.213 104.433 224.56 101.599 221.858 98.8363C221.29 98.2589 220.717 97.6869 220.145 97.1148C217.43 94.4112 214.668 91.7724 211.809 89.2846C190.145 70.4615 166.789 58.3301 143.739 45.1248C144.08 43.6192 144.631 42.2377 145.422 40.9965C145.872 40.0575 146.205 39.0214 146.467 37.9475C148.932 31.5742 148.342 22.7022 142.327 19.3456C136.697 16.2048 130.914 13.4526 125.039 11.1267C123.12 10.2039 121.188 9.35121 119.252 8.55252C111.96 4.55909 103.86 2.35191 96.1843 1.25641C95.7341 1.16467 95.2794 1.11614 94.8292 1.0298C89.5356 0.0314419 84.207 -0.265472 78.8653 0.247198C77.5102 0.382111 76.1552 0.511596 74.7957 0.754439C74.1881 0.792215 73.6329 0.927349 73.1128 1.11623C71.9325 1.33749 70.7522 1.618 69.5807 1.95258C66.1056 2.95094 62.7003 4.46189 59.5181 6.59892C78.0697 0.991928 101.019 6.43713 117.975 18.5793" fill="#741D22"/>
<path d="M171.888 252.277L171.892 251.947C169.816 251.073 167.648 250.15 165.392 249.174C167.547 250.307 169.715 251.332 171.888 252.277" fill="#D57A6D"/>
<path d="M171.888 252.277C169.715 251.332 167.547 250.307 165.392 249.174C167.648 250.15 169.816 251.073 171.892 251.947L171.888 252.277" fill="#E98977"/>
<path d="M280.182 231.678C277.113 231.23 273.419 230.625 269.393 229.891C269.752 231.289 270.031 232.633 270.219 233.917C276.309 233.194 282.179 231.969 280.182 231.678Z" fill="#902020"/>
<path d="M270.219 233.917C270.031 232.633 269.752 231.289 269.393 229.891C273.419 230.625 277.113 231.23 280.182 231.678C280.457 231.721 280.584 231.775 280.579 231.845C280.571 232.298 275.478 233.297 270.219 233.917Z" fill="#CC604F"/>
<path d="M72.1549 92.8793L72.7537 93.4189C80.9717 95.6693 89.8061 97.8439 91.5021 99.3063C93.4692 101.103 95.5455 102.663 97.7137 103.991C102.076 106.797 106.618 108.734 111.291 109.7C121.48 112.415 132.159 112.62 141.002 113.278C148.508 113.834 153.718 110.871 157.145 105.351C157.434 112.706 162.072 113.521 165.311 121.222C167.584 126.635 170.932 134.497 174.22 143.342L174.298 143.331C174.7 143.299 175.111 143.267 175.518 143.234L175.653 143.283C171.724 132.684 165.564 117.552 163.042 107.207C160.962 98.675 159.515 93.2622 159.969 83.883C160.214 80.7315 167.177 80.7477 165.101 79.1126C162.05 76.7165 153.408 60.6133 149.754 53.56C148.372 52.9988 146.982 52.4916 145.592 52.0167C149.623 61.725 162.71 80.5967 152.691 97.8278C146.943 107.725 133.125 101.535 124.929 100.186C118.796 99.1714 112.065 98.5724 105.656 96.4624C91.8693 89.9919 95.5762 53.5007 85.3037 38.4929C83.988 36.5718 88.84 50.5163 91.6901 64.4664C94.7456 79.4309 95.5019 94.3957 83.8612 89.7547L82.8645 88.9128C82.5716 88.6429 69.1037 88.0062 62.0791 87.8551L62.7173 88.087C65.8777 89.544 69.0251 91.147 72.1549 92.8793" fill="#902020"/>
<path d="M174.22 143.342C170.932 134.497 167.584 126.635 165.311 121.222C162.072 113.521 157.434 112.706 157.145 105.351C153.994 110.423 149.343 113.337 142.786 113.343C142.777 113.343 142.768 113.343 142.76 113.343C142.191 113.343 141.601 113.321 141.002 113.278C132.159 112.62 121.48 112.415 111.291 109.7C106.618 108.734 102.076 106.797 97.7137 103.991C95.5455 102.663 93.4692 101.103 91.5021 99.3063C89.8061 97.8439 80.9717 95.6693 72.7537 93.4189L72.1549 92.8793C69.0251 91.147 65.8777 89.544 62.7173 88.0869L62.0791 87.8551C69.1037 88.0062 82.5716 88.6429 82.8645 88.9128L83.8612 89.7547C85.3299 90.3429 86.602 90.618 87.6992 90.6126C92.0923 90.6126 93.6309 86.2145 93.6265 79.9653C93.6221 75.497 92.8266 70.0734 91.7251 64.6445C91.7207 64.6283 91.7163 64.6066 91.7163 64.5905C91.7076 64.5473 91.6988 64.5095 91.6901 64.4663C91.6726 64.3908 91.6595 64.3153 91.642 64.2397C91.5808 63.9321 91.5152 63.6245 91.4496 63.3169C91.4496 63.3116 91.4496 63.3115 91.4496 63.3061C91.4365 63.2522 91.4235 63.1928 91.4104 63.1388C88.8794 51.2611 85.0851 39.7449 85.0808 38.4389C85.0808 38.358 85.0982 38.3148 85.1288 38.3148C85.1638 38.3148 85.2207 38.3742 85.3037 38.4929C95.5762 53.5007 91.8693 89.9919 105.656 96.4624C112.065 98.5724 118.796 99.1714 124.929 100.186C129.641 100.963 136.207 103.338 142.034 103.338C146.344 103.338 150.248 102.037 152.691 97.8278C155.353 93.2516 156.385 88.5566 156.389 83.9534C156.398 71.2176 148.552 59.1455 145.592 52.0167C146.982 52.4915 148.372 52.9987 149.754 53.56C153.408 60.6132 162.05 76.7165 165.101 79.1126C165.368 79.3231 165.486 79.5066 165.486 79.6738C165.495 80.7963 160.183 81.1362 159.969 83.883C159.912 85.0541 159.886 86.1659 159.886 87.229C159.886 94.6654 161.224 99.7381 163.042 107.207C165.564 117.552 171.724 132.684 175.653 143.283L175.518 143.234C175.111 143.267 174.7 143.299 174.298 143.331L174.22 143.342" fill="#CC604F"/>
<path d="M171.894 251.947C171.164 249.815 161.551 239.378 164.751 233.798L165.332 232.735C163.78 232.023 162.216 231.294 160.642 230.544C155.956 235.055 151.305 238.272 147.537 238.417C153.429 242.287 159.379 246.021 165.394 249.173C167.649 250.15 169.817 251.072 171.894 251.947" fill="#902020"/>
<path d="M171.894 251.947C169.817 251.072 167.649 250.15 165.394 249.173C159.379 246.021 153.429 242.287 147.537 238.417C151.305 238.272 155.956 235.055 160.642 230.544C162.216 231.294 163.78 232.023 165.332 232.735L164.751 233.798C164.292 234.591 164.1 235.487 164.1 236.442C164.113 242.184 171.268 250.117 171.894 251.947" fill="#CC604F"/>
<path d="M57.9017 87.9192C59.2262 89.5435 65.77 91.5081 72.7553 93.4185L72.1564 92.8788C69.0266 91.1465 65.8793 89.5436 62.7188 88.0865L62.0807 87.8546C59.5322 87.8006 57.8099 87.8058 57.9017 87.9192" fill="#902020"/>
<path d="M72.7562 93.4185C65.7709 91.5081 59.2271 89.5435 57.9026 87.9192L57.8982 87.9139C57.8938 87.8491 58.5146 87.8222 59.5506 87.8222C60.2325 87.8222 61.098 87.833 62.0815 87.8546L62.7197 88.0865C65.8802 89.5436 69.0275 91.1465 72.1573 92.8788L72.7562 93.4185" fill="#C45E51"/>
<path d="M259.267 234.026C260.762 234.722 265.552 234.468 270.217 233.918C270.029 232.633 269.749 231.29 269.39 229.892C254.331 227.14 234.416 222.493 223.186 216.687C211.607 210.702 186.052 208.489 186.581 200.308C187.53 180.994 183.084 163.849 176.588 145.819C176.304 145.026 175.972 144.141 175.653 143.283L175.518 143.234C175.111 143.267 174.7 143.299 174.298 143.332L174.219 143.342C181.799 163.73 189.064 189.413 182.136 202.871C180.776 205.505 170.678 220.869 160.638 230.545C162.211 231.295 163.776 232.023 165.328 232.736C176.462 212.321 171.422 193.325 259.267 234.026" fill="#902020"/>
<path d="M262.746 234.446C261.177 234.446 259.94 234.327 259.288 234.036C259.28 234.03 259.275 234.03 259.267 234.025C259.184 233.987 259.101 233.949 259.022 233.912C258.899 233.858 258.777 233.798 258.655 233.744C257.837 233.366 257.028 232.989 256.229 232.622C255.586 232.33 254.943 232.034 254.31 231.748C254.292 231.737 254.27 231.731 254.253 231.721C219.549 215.909 200.241 210.026 188.706 210C188.679 210 188.658 210 188.631 210C188.627 210 188.627 210 188.623 210C172.851 210.005 171.662 221.014 165.442 232.53C165.437 232.53 165.437 232.53 165.437 232.53C165.42 232.562 165.402 232.6 165.385 232.633C165.367 232.665 165.35 232.697 165.328 232.735C163.776 232.023 162.211 231.294 160.638 230.544C170.678 220.868 180.776 205.504 182.136 202.871C184.098 199.055 184.92 194.269 184.924 188.894C184.924 175.289 179.653 157.955 174.219 143.342L174.298 143.331C174.7 143.298 175.111 143.266 175.518 143.234L175.653 143.282C175.972 144.14 176.304 145.025 176.588 145.819C182.498 162.224 186.717 177.906 186.708 195.154C186.708 196.854 186.664 198.57 186.581 200.307C186.572 200.388 186.572 200.464 186.572 200.545C186.551 208.532 211.72 210.755 223.186 216.686C234.416 222.492 254.331 227.139 269.39 229.891C269.749 231.289 270.029 232.633 270.217 233.917C270.138 233.922 270.059 233.933 269.981 233.944C269.946 233.944 269.915 233.949 269.88 233.955C269.539 233.992 269.203 234.03 268.862 234.068C266.698 234.289 264.578 234.44 262.847 234.446C262.812 234.446 262.781 234.446 262.746 234.446" fill="#C45E51"/>
<path d="M148.089 50.2681C147.429 48.7139 144.347 46.6687 144.487 48.2876C144.574 49.2968 144.985 50.5597 145.593 52.0167C146.983 52.4916 148.373 52.9988 149.754 53.5601C148.81 51.736 148.185 50.484 148.089 50.2681" fill="#741D22"/>
<path d="M149.754 53.5601C148.373 52.9988 146.983 52.4916 145.593 52.0167C144.985 50.5597 144.574 49.2968 144.487 48.2876C144.487 48.2661 144.483 48.2445 144.483 48.2284C144.483 48.2176 144.483 48.2015 144.483 48.1907C144.478 47.8399 144.653 47.6942 144.928 47.6942C145.781 47.6942 147.599 49.1187 148.089 50.2681C148.185 50.484 148.81 51.736 149.754 53.5601" fill="#C05D52"/>
<path d="M22.9767 218.618C25.8093 221.64 29.3062 223.637 34.2851 225.321C43.8407 228.553 45.8297 235.407 49.2306 247.689L49.4579 248.499C50.9966 254.057 52.7319 258.919 55.3066 263.49L55.6476 264.143C61.3695 273.916 70.1646 282.464 76.975 290.225C77.6744 291.023 78.4394 291.8 79.1563 292.594C95.5179 310.683 116.281 327.504 135.506 337.876C137.159 338.766 138.824 339.705 140.45 340.499C141.163 340.844 141.198 340.666 140.905 340.256L140.826 340.153L140.341 339.592C139.231 338.421 137.145 336.613 135.856 335.734C116.985 322.841 96.8118 308.022 80.0611 289.275C73.5348 281.968 64.4688 268.709 59.1665 259.297C54.5941 251.175 55.3634 241.213 50.4894 229.579C46.2581 219.482 40.8814 217.798 33.8262 215.958C30.7751 215.164 28.1873 213.092 25.9273 210.221L25.4814 209.633C18.2295 199.844 14.7193 181.22 12.1272 166.898C11.8212 165.198 11.5239 163.541 11.2354 161.987C10.0858 155.765 8.97113 149.24 7.97886 142.657C6.67185 133.968 5.59651 125.161 5.13753 116.645C4.86214 111.54 4.89711 107.385 5.24681 103.802C5.57903 100.418 6.19978 97.5472 7.13961 94.9298C7.3232 94.4064 7.51547 93.883 7.72966 93.3757C8.41595 90.5911 9.52629 88.0655 11.148 85.9231L11.865 86.1012C13.1545 84.2664 14.6407 82.3721 16.3324 80.3052C16.5291 80.0624 18.9158 78.1466 19.9998 77.2346L20.5112 76.7542L17.4732 78.2491C-1.19208 85.815 -1.5505 106.894 1.3258 132.851C3.83928 155.517 7.11773 177.534 13.5697 198.7L13.9937 200.011C16.8394 209.126 19.3617 214.77 22.9767 218.618" fill="#B74542"/>
<path d="M7.01845 104.341C8.17684 120.99 18.0428 140.887 26.3701 148.911C27.3492 149.856 28.3153 150.687 29.2333 151.28C32.739 153.525 36.2185 154.335 39.7855 152.667C41.8181 151.717 43.5404 149.068 45.5905 148.318C47.1729 147.746 48.7553 147.907 50.2853 148.533C54.1276 150.104 57.5809 154.907 59.5173 160.578C60.1949 162.559 60.8419 164.399 61.4714 166.131C65.8514 178.09 69.6238 184.598 78.4843 192.375C103.733 214.517 129.064 236.362 156.883 249.697C163.628 252.929 170.145 256.146 176.724 258.709C183.316 261.278 189.969 263.193 196.968 263.809C208.433 264.823 222.872 262.12 234.08 267.343L234.941 267.797C243.102 271.882 248.439 278.374 257.099 281.218L257.252 281.261C268.123 284.78 285.779 283.986 299.006 279.2C301.581 278.271 304.002 277.203 306.153 275.972C307.01 275.481 307.832 274.969 308.601 274.434C313.864 270.77 314.655 267.09 312.172 266.874C297.883 265.616 279.834 275.497 254.896 268.638C246.14 266.226 237.97 260.862 229.206 259.205C215.279 256.577 201.566 258.747 187.657 256.933C184.798 256.561 181.965 255.838 179.146 254.975L178.429 254.732C176.239 254.03 174.058 253.215 171.885 252.276C169.713 251.332 167.545 250.307 165.39 249.173C159.375 246.022 153.421 242.287 147.533 238.418C143.284 235.623 139.066 232.789 134.865 230.113C126.909 225.04 118.98 219.368 111.509 212.644C103.951 205.844 96.577 201.97 89.1983 194.733C84.0358 189.671 77.6537 185.473 73.2082 178.819C68.2205 171.339 67.473 159.726 63.1411 151.394C59.8146 144.993 54.1057 138.755 48.7203 138.496C47.7193 138.442 46.8189 138.696 45.9534 139.057C43.842 139.948 42.0366 141.761 40.1876 143.466C38.78 144.756 37.3332 145.954 35.6678 146.531L35.4841 146.569C32.1139 147.659 29.019 146.634 26.2345 144.286C22.0775 140.784 18.6242 134.357 15.9621 127.692C14.7206 124.594 13.6453 121.443 12.7623 118.518C9.81602 108.734 12.1066 96.349 12.0978 86.592L11.8619 86.1011L11.1449 85.923C9.52317 88.0654 8.41283 90.591 7.72654 93.3756C6.90475 96.7161 6.74744 100.445 7.01845 104.341" fill="#FDE1CB"/>
<path d="M203.475 231.19C206.855 231.325 210.176 231.427 213.077 231.465C211.531 232.544 209.318 233.656 207.111 234.779C208.548 236.316 209.947 237.914 211.26 239.629C211.602 237.703 212.539 235.491 215.937 232.436C216.818 231.654 227.79 231.908 227.714 231.05C228.413 231.007 229.074 230.996 229.783 230.947C228.088 233.316 236.438 228.363 226.608 240.892C222.686 245.889 229.244 247.837 233.286 244.168C236.775 241 233.926 236.009 236.894 232.253C240.011 228.309 242.803 230.829 242.221 229.841C250.232 228.972 258.839 227.807 268.542 226.263C299.716 256.228 338.754 287.801 377.392 307.96C383.731 311.268 395.174 295.355 388.969 292.112C363.117 278.622 339.201 270.528 309.008 252.839C311.082 252.591 304.638 246.957 304.13 244.464C301.039 229.307 302.132 226.393 303.033 220.63C304.153 213.453 310.775 201.29 308.448 191.259C307.773 188.356 305.468 184.676 303.342 181.584C302.169 179.873 298.222 186.43 301.1 193.79C302.037 196.175 303.313 206.805 299.142 206.557C294.533 207.566 291.88 190.218 289.028 186.521C286.019 182.631 278.588 187.703 285.428 196.002C296.712 209.708 299.096 226.415 301.016 246.224C294.281 240.504 287.756 234.536 281.349 228.417C280.783 226.458 278.432 224.24 276.088 223.382C268.524 215.919 261.202 208.181 254.153 200.136L255.346 200.076C265.768 197.729 269.55 173.862 270.777 161.564C271.61 161.44 271.976 153.173 272.62 152.623C282.122 144.486 288.076 144.702 290.743 132.782C291.893 127.634 288.277 114.413 286.919 120.5C285.374 127.407 275.615 140.368 271.344 145.959C270.893 127.504 266.322 110.453 261.504 93.9081C258.968 85.1988 245.771 80.8387 247.481 86.5801C252.32 102.806 264.86 128.858 266.62 149.898C267.258 157.49 265.482 169.254 263.853 177.272C263.479 179.112 256.931 204.506 252.246 195.786C251.616 194.615 248.389 192.209 247.922 192.872C243.65 187.784 239.447 182.615 235.373 177.31C235.232 176.35 234.592 175.303 233.183 174.261L233.016 174.148C232.499 173.468 232.02 172.756 231.509 172.071C233.223 172.087 232.815 167.376 233.479 165.773C235.515 160.847 240.83 161.035 241.34 156.093C241.843 145.387 231.721 164.635 234.279 151.171C239.673 122.777 234.147 98.565 215.074 81.9666C210.593 78.0706 201.375 80.8712 207.845 85.0801C213.582 88.8142 218.203 93.1473 221.874 98.0092C218.374 96.822 214.735 96.0017 210.925 95.4945C208.705 95.2031 205.779 96.9298 206.25 99.7574C206.78 102.903 210.188 104.058 212.821 104.409C216.207 104.857 219.368 105.898 222.352 107.269C223.465 107.781 225.782 108.316 227.624 107.673C232.92 119.415 234.092 133.521 232.101 149.655C231.875 150.027 224.665 127.526 226.482 141.885C227.111 146.887 227.248 158.229 225.293 163.474C213.005 146.212 201.683 127.984 191.467 108.747C192.509 108.343 187.798 100.934 187.781 99.6225C187.632 87.4057 186.895 77.1424 185.369 67.9528L185.535 68.0446C187.702 69.0267 186.562 63.4471 188.106 60.4577C193.891 49.2284 199.173 58.8335 202.318 54.8943C204.357 52.3366 200.274 49.3094 199 48.732C196.839 47.7499 193.87 45.1112 191.766 47.7499C189.132 51.0523 186.382 56.6642 183.747 59.9666C182.484 54.6352 180.919 49.5953 178.915 44.7172C181.258 45.3324 178.266 41.3123 179.505 39.2078C183.763 31.9285 194.656 19.1668 196.888 11.31C198.322 6.2593 187.118 10.1931 185.368 16.3554C183.495 22.9549 181.167 31.8207 177.703 37.9506C176.541 45.8991 169.163 26.9912 161.933 15.832C159.22 11.6501 143.925 14.8013 149.772 19.6902C171.733 38.0477 187.561 72.4532 184.117 95.5377C175.744 80.747 164.174 62.2222 155.801 47.4315C153.658 43.6434 138.513 37.1412 141.96 43.228L157.853 64.9958C155.795 65.3573 149.383 59.7615 147.857 59.4486C146.089 59.087 142.123 59.1195 141.649 62.3679C141.201 65.4707 144.562 67.4996 146.798 67.9582C150.786 68.773 154.988 68.8486 159.345 67.8287L159.533 67.7478L185.728 104.306C191.345 110.517 174.27 97.8527 176.633 106.384C177.834 108.623 183.662 115.546 184.889 117.764C156.211 99.2934 127.98 68.282 122.947 33.0239C121.024 19.5553 103.971 12.6969 109.153 28.2431C110.835 33.2992 115.591 42.2998 117.81 47.2912C111.194 45.6507 107.42 44.1291 99.5752 31.0166C97.0339 26.7645 80.9751 24.3362 85.9847 30.2126C93.1789 38.6521 102.425 51.3599 116.68 50.0702C117.454 50.0001 119.004 52.7844 119.59 52.7359C135.133 82.7489 159.861 109.913 189.434 125.41C195.458 135.49 205.72 152.45 212.33 161.958C196.216 158.273 162.837 140.876 155.243 121.245C151.146 110.663 133.575 110.603 137.273 116.431C143.669 126.511 151.851 134.19 160.757 140.46C156.476 141.971 152.114 142.915 147.901 143.077C145.752 143.164 136.545 146.515 139.224 148.894C141.171 150.626 144.937 154.064 147.629 153.961C153.814 153.724 155.109 144.669 164.317 142.926C165.364 142.726 169.986 147.238 170.237 146.482C188.073 156.832 207.28 163.167 220.542 172.162C232.769 188.194 250.113 210.124 264.079 224.251C250.126 225.799 236.414 226.301 222.867 225.94C221.77 225.627 220.599 225.519 219.395 225.826C217.939 225.772 216.478 225.762 215.027 225.686C214.918 224.974 214.6 224.181 213.933 223.279C209.53 217.322 205.133 211.365 200.731 205.408C197.792 201.425 187.235 203.173 191.859 209.433C195.631 214.543 210.184 215.682 209.141 224.639C206.933 224.434 198.738 224.429 196.535 224.17L195.444 224.154L196.31 225.395C198.773 227.159 201.172 229.08 203.475 231.19Z" fill="#7AB22B"/>
</svg>