<svg width="325" height="400" viewBox="0 0 325 400" fill="none" xmlns="http://www.w3.org/2000/svg">
<path d="M312.616 130.016C330.29 168.724 320.181 233.447 308.421 260.137C286.022 310.962 241.223 334.569 216.537 329.923C215.948 320.926 216.869 274.681 216.869 274.681C216.869 274.681 222.222 292.057 235.051 293.741C245.912 295.165 295.717 264.717 295.142 199.673C294.412 116.478 258.704 115.38 221.824 164.662L222.053 107.031C222.053 107.031 229.389 114.16 245.145 109.437C260.894 104.714 294.043 89.336 312.616 130.016" fill="#F6F4C7"/>
<path d="M226.226 293.204C230.458 296.241 233.916 304.452 234.277 306.864C251.825 300.224 269.808 283.591 279.526 269.677C289.243 255.765 292.362 242.368 293.299 238.308C297.125 221.708 297.966 205.158 297.966 205.158C297.966 205.158 288.219 250.066 279.791 260.701C271.356 271.337 249.738 294.141 236.356 293.783C231.394 293.557 226.226 293.204 226.226 293.204" fill="#403428"/>
<path d="M219.325 327.409C242.1 329.789 284.289 307.742 305.781 258.969C316.804 233.954 327.635 169.867 309.991 131.218C294.132 96.4761 267.928 105.053 250.594 110.733C248.928 111.276 247.387 111.783 245.971 112.206C236.106 115.163 229.138 113.812 224.921 112.064L224.751 156.257C242.513 134.697 259.434 125.307 272.897 129.729C288.986 135.011 297.678 159.189 298.032 199.648C298.423 244.054 276.282 270.352 263.047 282.076C252.481 291.439 240.802 297.401 234.675 296.606C227.789 295.702 222.856 291.078 219.553 286.388C219.347 299.232 219.089 319.162 219.325 327.409V327.409ZM222.51 333.358C220.209 333.344 218.034 333.146 216.007 332.764C214.709 332.52 213.743 331.429 213.655 330.111C213.065 321.095 213.942 276.516 213.986 274.623C214.009 273.205 215.063 272.015 216.471 271.818C217.865 271.619 219.214 272.471 219.627 273.829C219.678 273.981 224.611 289.454 235.427 290.873C238.583 291.29 248.323 287.401 259.22 277.748C271.718 266.676 292.628 241.813 292.259 199.698C291.935 162.493 284.414 139.596 271.098 135.222C259.043 131.261 241.923 142.626 224.139 166.394C223.387 167.392 222.089 167.799 220.91 167.403C219.73 167.006 218.934 165.897 218.941 164.65L219.162 107.018C219.17 105.86 219.863 104.816 220.932 104.367C222.001 103.918 223.232 104.148 224.065 104.957C224.301 105.174 230.591 110.786 244.312 106.669C245.683 106.258 247.18 105.766 248.795 105.238C265.723 99.6958 297.236 89.369 315.241 128.814C333.607 169.036 322.459 235.434 311.061 261.303C289.295 310.701 248.161 333.513 222.51 333.358" fill="#403428"/>
<path d="M243.435 132.994C238.989 133.027 231.844 133.125 231.844 133.125C233.09 139.395 230.34 143.073 227.914 146.11C228.733 136.76 228.865 134.353 221.942 135.033C221.927 138.043 221.824 164.662 221.824 164.662C221.824 164.662 247.069 129.634 266.313 131.562C285.542 133.488 288.809 154.026 290.224 158.473C282.799 118.497 253.204 127.085 243.435 132.994" fill="#403428"/>
<path d="M222.031 113.593C226.801 118.079 229.544 122.311 229.772 124.481C231.601 120.516 232.235 114.718 229.853 110.559C228.106 110.127 222.525 108.663 222.053 107.031C222.525 108.663 222.031 113.593 222.031 113.593" fill="#403428"/>
<path d="M217.194 333.784C223.085 335.584 231.011 331.367 232.346 316.529L217.194 333.784Z" fill="#F6F4C7"/>
<path d="M218.882 328.255C219.487 328.901 220.504 329.467 221.824 329.361C223.136 329.304 224.714 328.62 226.108 327.385C227.516 326.159 228.747 324.469 229.78 322.608C230.856 320.746 231.608 318.662 232.345 316.529C232.567 318.755 232.773 321.054 232.559 323.406C232.375 325.755 231.94 328.195 230.893 330.625C229.853 333.035 228.113 335.481 225.422 337.251C222.768 339.06 219.118 339.893 215.513 339.313L218.882 328.255" fill="#403428"/>
<path d="M121.429 29.998C67.3425 29.6719 29.5716 42.4789 29.5015 54.1768L29.4699 54.5849L25.3151 82.4858C23.6532 93.6501 22.7758 105.031 22.7087 116.315L21.4663 322.644C21.3226 346.524 54.9077 370.942 119.376 371.41C183.838 371.72 217.717 347.708 217.858 323.828L219.104 117.499C219.17 106.216 218.433 94.825 216.899 83.6414L213.058 55.2837C213.131 43.5858 175.515 30.325 121.429 29.998V29.998ZM119.341 377.19C51.0781 376.696 15.528 349.359 15.6895 322.609L16.9319 116.28C17.0012 104.724 17.8993 93.0672 19.6024 81.6349L23.7277 53.9214C24.2187 34.2471 74.3476 23.9344 121.463 24.2185C168.579 24.5026 218.58 35.419 218.831 55.0977L222.628 82.8599C224.191 94.3113 224.95 105.979 224.877 117.534L223.638 323.864C223.476 350.613 187.598 377.519 119.341 377.19" fill="#403428"/>
<path d="M247.453 125.834C252.511 123.054 258.07 121 263.991 120.218C269.874 119.5 276.237 120.137 281.804 122.973C287.415 125.691 291.876 130.34 295.039 135.452C298.246 140.59 300.392 146.196 301.977 151.863C303.569 157.546 304.41 163.34 305.103 169.115C305.317 172.015 305.649 174.905 305.708 177.803C305.818 180.699 305.973 183.59 305.892 186.482C305.84 198.045 304.86 209.544 303.186 220.919C303.334 209.419 303.407 197.957 302.722 186.574C302.434 180.881 301.866 175.219 301.07 169.615C300.229 164.028 299.249 158.452 297.575 153.122C295.99 147.783 293.948 142.58 291.013 138.008C288.079 133.479 284.407 129.444 279.725 126.974C278.604 126.267 277.358 125.814 276.142 125.284L274.247 124.665C273.613 124.451 272.949 124.354 272.3 124.171C269.69 123.554 266.962 123.314 264.197 123.307C258.66 123.347 253.049 124.419 247.453 125.834Z" fill="#935300"/>
<path d="M219.767 83.2501L215.948 55.3005C216.036 40.0457 173.729 27.4231 121.446 27.108C69.1627 26.7929 26.7048 38.9034 26.6126 54.1589L22.4586 82.0606C20.7709 93.3954 19.8891 104.836 19.8205 116.297L18.5774 322.627C18.427 347.587 52.1552 373.813 119.355 374.3C186.559 374.624 220.6 348.807 220.748 323.846L221.986 117.517C222.06 106.056 221.315 94.6056 219.767 83.2501" fill="#FF9F00"/>
<path d="M121.446 27.108C69.1627 26.7929 26.7048 38.9034 26.6126 54.1589L22.4586 82.0606C20.7709 93.3954 19.8891 104.836 19.8205 116.297L18.5774 322.627C18.427 347.587 52.1552 373.813 119.355 374.3C186.559 374.624 220.6 348.807 220.748 323.846L221.986 117.517C222.06 106.056 221.315 94.6056 219.767 83.2501L215.948 55.3005C216.036 40.0457 173.729 27.4231 121.446 27.108V27.108ZM121.404 34.075C146.049 34.2233 169.114 37.1367 186.345 42.278C204.859 47.8 208.995 53.646 208.987 55.2584L208.98 55.7536L209.046 56.2443L212.866 84.1939C214.37 95.1841 215.092 106.382 215.026 117.474L213.787 323.804C213.655 345.126 180.527 367.629 119.405 367.334C58.2645 366.891 25.41 343.99 25.5383 322.669L26.7807 116.34C26.8478 105.246 27.7097 94.0588 29.3436 83.087L33.4968 55.1854L33.5706 54.6954L33.5735 54.2002C33.5831 52.5878 37.7917 46.7927 56.3652 41.4943C73.6603 36.5611 96.758 33.9259 121.404 34.075" fill="#F6F4C7"/>
<path d="M131.041 139.048C165.367 137.596 192.096 139.057 219.163 107.019C218.964 104.931 219.959 93.7798 219.716 91.6973L215.918 59.5009C216.029 41.926 173.729 27.4231 121.446 27.108C69.1629 26.7929 26.6932 40.7837 26.587 58.3585L22.4072 90.507C21.1294 100.342 20.3095 110.245 19.9475 120.175L30.0936 121.662C64.905 137.169 95.066 140.571 131.041 139.048" fill="#F6F4C7"/>
<path d="M121.429 29.998C67.3425 29.6719 29.5716 42.4789 29.5015 54.1768L29.4699 54.5849L25.3151 82.4858C23.6532 93.6501 22.7758 105.031 22.7087 116.315L21.4663 322.644C21.3226 346.524 54.9077 370.942 119.376 371.41C183.838 371.72 217.717 347.708 217.858 323.828L219.104 117.499C219.17 106.216 218.433 94.825 216.899 83.6414L213.058 55.2837C213.131 43.5858 175.515 30.325 121.429 29.998V29.998ZM119.341 377.19C51.0781 376.696 15.528 349.359 15.6895 322.609L16.9319 116.28C17.0012 104.724 17.8993 93.0672 19.6024 81.6349L23.7277 53.9214C24.2187 34.2471 74.3476 23.9344 121.463 24.2185C168.579 24.5026 218.58 35.419 218.831 55.0977L222.628 82.8599C224.191 94.3113 224.95 105.979 224.877 117.534L223.638 323.864C223.476 350.613 187.598 377.519 119.341 377.19" fill="#403428"/>
<path d="M46.896 70.8624C42.3461 69.4581 33.6466 65.834 31.8431 58.245C31.8431 58.245 27.5321 88.0498 28.1566 90.7839C28.6056 92.7431 36.1468 100.548 43.6482 102.991C43.5509 98.1102 45.6964 76.7062 46.896 70.8624Z" fill="#403428"/>
<path d="M213.802 321.406C189.515 357.519 139.293 362.366 93.0942 360.114C93.0942 360.114 111.955 372.414 155.645 364.827C177.902 360.961 193.998 352.38 203.023 344.445C209.614 338.646 214.208 330.192 213.802 322.16C213.78 321.857 213.817 321.683 213.802 321.406" fill="#935300"/>
<path d="M50.9298 333.155C50.9298 333.155 35.3195 340.233 25.5612 322.096C25.5612 322.096 25.2943 326.27 25.9911 330.61C26.6863 334.95 36.9792 345.351 43.9682 349.189C62.162 359.184 75.8679 361.419 83.0913 360.98C75.7233 358.848 68.3605 355.849 62.2121 350.994C53.4684 344.09 50.9298 333.155 50.9298 333.155" fill="#935300"/>
<path d="M119.355 374.3C72.4201 373.96 41.8358 361.059 27.6957 344.808C27.689 345.032 27.6772 345.255 27.6765 345.481C27.5062 373.633 58.1583 396.647 119.217 397.108C180.277 397.385 211.207 374.741 211.376 346.589C211.376 346.364 211.369 346.14 211.362 345.916C197.028 361.996 166.291 374.526 119.355 374.3" fill="#403428"/>
<path d="M31.1921 352.339C36.1085 377.642 69.5396 393.843 119.239 394.217C168.932 394.442 202.551 378.645 207.778 353.404C189.545 368.789 157.947 377.377 119.341 377.19H119.334C80.729 376.911 49.2393 367.941 31.1921 352.339ZM119.205 399.998C61.6482 399.565 24.591 378.159 24.7879 345.464C24.7894 345.28 24.796 345.098 24.8019 344.914L25.0319 337.345L29.8738 342.91C45.3728 360.721 77.9943 371.109 119.376 371.41C160.751 371.609 193.497 361.614 209.209 343.991L214.119 338.485L214.252 346.049C214.259 346.236 214.259 346.42 214.259 346.607C214.068 379.301 176.752 400.259 119.205 399.998" fill="#403428"/>
<path d="M85.068 336.919L68.89 336.822C65.2492 336.8 62.3147 333.828 62.3375 330.183L63.459 143.927C63.4804 140.284 66.4503 137.347 70.0911 137.369L86.2691 137.466C89.9092 137.488 92.8437 140.46 92.8216 144.104L91.7002 330.361C91.678 334.005 88.7081 336.941 85.068 336.919Z" fill="#935300"/>
<path d="M82.9675 325.263L76.4254 325.224C74.9529 325.215 73.7673 324.013 73.7754 322.539L74.8224 148.657C74.832 147.183 76.0323 145.997 77.5047 146.005L84.0461 146.045C85.5185 146.053 86.7049 147.256 86.6968 148.729L85.6491 322.612C85.6402 324.085 84.4391 325.272 82.9675 325.263Z" fill="#FF9F00"/>
<path d="M52.1049 138.01L51.0719 309.472C51.0343 315.779 46.4004 320.865 40.7334 320.831L40.7076 320.83C36.7829 320.797 33.3972 318.32 31.7014 314.716C30.9464 313.116 30.5194 311.288 30.5312 309.348L31.4352 159.284C31.4536 156.13 33.333 150.723 36.6221 150.742C39.9113 150.763 41.7287 155.427 41.7052 159.346L40.7614 316.176C44.2105 315.956 46.278 314.078 46.3023 310.161L47.3035 143.792C47.3308 139.279 46.4564 132.769 39.3369 132.727C34.9831 132.701 31.5583 138.851 31.5288 143.697L31.5635 137.886C31.6018 131.569 36.2269 126.485 41.9035 126.519C44.737 126.537 47.2969 127.832 49.1394 129.908C50.9901 131.983 52.1241 134.857 52.1049 138.01" fill="#935300"/>
<path d="M143.057 37.0939C143.057 37.1241 144.306 37.282 144.924 37.3337C173.004 39.6907 193.143 45.8023 193.099 52.8519C193.047 61.7537 160.855 68.7753 121.196 68.5362C81.5386 68.2971 49.4325 60.8874 49.4863 51.9863C49.5261 45.443 91.8845 37.4289 91.875 37.3691C61.2552 39.8493 39.4957 46.3986 39.4493 54.2282C39.3881 64.4007 75.9749 72.8686 121.169 73.1409C166.362 73.414 203.052 65.3881 203.111 55.2155C203.163 46.7321 177.718 39.4413 143.057 37.0939" fill="#403428"/>
<path d="M177.033 61.1426C177.018 62.4222 166.003 63.7903 166.007 63.1321C166.011 62.4746 166.065 53.4288 166.093 48.8241C166.121 44.2193 171.171 44.6746 172.852 45.2465C174.533 45.8192 175.532 46.9158 176.165 47.9703C177.136 50.0321 177.047 57.7717 177.033 61.1426ZM197.36 54.4406C189.936 39.7053 144.534 37.1395 143.329 37.1468C143.329 37.1468 152.986 39.0212 155.132 40.8225C157.277 42.6246 156.992 59.3981 156.94 68.094C156.94 68.094 201.939 63.5143 197.36 54.4406Z" fill="#403428"/>
<path d="M193.062 369.559C192.833 373.056 187.178 377.305 184.148 379.07C168.768 388.053 149.465 392.395 119.247 392.213C97.426 392.081 80.1111 389.645 66.4591 384.235C62.2483 382.566 53.2826 376.711 52.0845 372.339C51.7549 371.137 52.4442 369.513 53.7338 369.569C69.9819 376.518 91.8571 381.015 119.313 381.21C150.018 381.357 173.797 376.051 190.592 367.854C191.757 367.284 193.135 368.175 193.069 369.474C193.062 369.502 193.062 369.53 193.062 369.559" fill="#F6F4C7"/>
<path d="M82.2595 383.012C88.6269 383.987 94.9198 384.516 101.25 384.905C107.575 385.25 113.903 385.48 120.235 385.499C123.401 385.576 126.569 385.532 129.735 385.481C132.907 385.488 136.067 385.325 139.242 385.26C145.588 385.026 151.921 384.636 158.358 384.087C152.352 386.199 145.976 387.451 139.57 388.255C136.365 388.681 133.135 388.918 129.904 389.127C128.288 389.25 126.668 389.249 125.049 389.3C123.43 389.352 121.81 389.36 120.19 389.351C113.713 389.254 107.231 388.85 100.835 387.879C94.4612 386.921 88.071 385.512 82.2595 383.012Z" fill="#BDAA7C"/>
<path d="M112.872 334.005C117.906 332.177 121.582 326.691 121.622 320.183L122.578 161.387C122.617 154.856 118.982 149.308 113.943 147.439C115.821 145.548 118.259 144.404 120.926 144.421C126.804 144.456 131.536 150.076 131.495 156.975L130.485 324.625C130.444 331.523 125.644 337.086 119.766 337.051C117.125 337.035 114.721 335.885 112.872 334.005V334.005ZM145.669 321.194L146.657 157.131C146.756 140.73 154.515 131.564 162.031 127.66C152.762 129.733 141.589 131.595 128.027 133.141C133.058 137.267 136.861 141.225 136.789 153.131C136.789 153.135 136.789 153.143 136.789 153.148C135.965 145.04 129.152 138.688 120.824 138.638C111.905 138.585 104.631 145.778 104.578 154.704L103.544 326.246C103.49 335.173 110.677 342.454 119.597 342.508C121.848 342.521 123.993 342.071 125.944 341.25C125.937 341.253 125.931 341.257 125.924 341.261C125.939 341.253 125.953 341.247 125.967 341.239C126.633 340.957 127.267 340.621 127.884 340.256C135.746 336.182 138.543 333.766 140.252 321.431C140.668 332.357 140.686 340.868 132.756 347.084C125.887 352.469 111.467 351.934 111.467 351.934C128.309 353.967 146.744 352.232 163.788 347.13C163.358 347.146 162.93 347.162 162.482 347.159C152.816 347.101 145.601 332.399 145.669 321.194" fill="#935300"/>
<path d="M199.174 319.187C193.674 319.154 192.265 310.212 192.265 310.212C192.265 310.212 193.769 316.507 198.68 316.537C203.517 316.566 205.139 308.456 205.183 300.9L206.09 150.398C206.193 133.157 200.324 121.721 194.322 137.671C194.75 135.314 196.689 123.406 203.133 123.432C207.38 123.676 208.656 130.753 208.641 133.298L207.719 303.709C207.638 317.134 202.978 319.209 199.174 319.187V319.187ZM191.292 243.837L191.381 223.305C191.535 209.618 191.727 195.931 192.103 182.246C192.464 168.562 192.936 154.877 193.725 141.197C194.286 154.89 194.514 168.581 194.639 182.271C194.78 195.961 194.728 209.649 194.639 223.336L194.374 243.868C194.227 250.71 194.138 257.553 193.924 264.396C193.57 278.08 193.091 291.765 192.295 305.445C191.734 291.75 191.506 278.061 191.381 264.371C191.292 257.525 191.322 250.682 191.292 243.837V243.837ZM180.336 306.539C180.277 316.355 177.217 323.885 170.672 325.793C165.409 327.327 162.62 324.138 162.62 324.138C162.62 324.138 171.331 325.5 171.413 311.811L172.289 166.505C172.396 148.665 172.153 146.496 164.94 145.464C166.407 143.101 166.805 140.903 170.708 140.023C176.443 138.73 181.331 141.704 181.287 148.603L180.336 306.539ZM207.535 63.9339C205.463 65.9817 205.139 66.8355 193.799 70.7046C194.595 72.9073 197.095 80.0794 197.788 84.6502C199.034 92.9078 199.026 100.836 198.99 103.217C196.328 104.882 193.644 106.603 190.997 107.625C190.968 103.502 190.577 82.7707 185.681 73.1922C182.865 73.9759 179.679 74.7928 176.089 75.6436C177.047 78.8662 178.957 85.642 179.414 90.108C180.321 98.9899 180.247 108.546 180.085 111.477C182.983 111.253 187.657 109.452 187.657 109.452C187.657 109.452 172.149 120.634 118.471 121.28C88.4168 121.641 45.0173 115.296 28.7486 99.1383C28.4971 101.838 28.0909 106.117 27.967 111.018C27.7525 119.518 27.9272 129.004 27.9272 129.004C27.9272 129.004 28.7965 117.768 39.0753 116.224C49.3541 114.68 64.6187 127.62 120.493 126.993C176.369 126.367 199.557 112.053 211.826 100.243C205.869 107.65 199.336 117.604 171.108 125.402C177.903 125.732 182.717 130.922 184.081 137.979C182.105 133.448 178.78 131.681 174.088 131.653C166.839 131.609 153.459 138.835 153.327 160.756L152.386 316.907C152.322 327.564 159.751 338.253 168.03 338.303C176.693 338.355 182.172 328.695 184.487 322.985C183.477 327.539 182.747 337.009 176.34 342.649C191.617 336.241 204.969 326.902 213.876 314.953L215.107 104.526C215.107 104.526 210.079 61.4131 207.535 63.9339" fill="#935300"/>
<path d="M153.22 114.656C153.22 114.656 151.019 115.441 146.105 115.711C142.226 115.924 138.636 115.752 138.636 115.752L139.82 105.306C140.401 100.167 140.223 94.9679 139.297 89.8894L137.623 80.7581L151.234 80.1522C151.234 80.1522 153.55 87.5988 154.149 96.5759C154.63 103.913 153.22 114.656 153.22 114.656" fill="#935300"/>
<path d="M202.728 47.7683C202.647 42.1039 202.012 37.1589 200.906 32.8545C205.456 30.3661 203.435 20.1028 196.542 21.4215C199.196 16.2973 192.929 8.39683 186.536 12.108C187.473 7.30541 178.839 -4.44931 168.982 7.13346C139.756 4.57575 100.714 23.166 91.1898 25.3223C75.578 28.857 31.3822 22.4214 13.8814 38.6459C-3.61939 54.8696 5.98408 85.7724 9.10216 109.742C12.2217 133.711 -10.4579 166.959 12.6825 177.622C35.823 188.285 58.6486 130.725 64.8494 124.593C70.7021 118.806 80.7295 118.21 101.725 106.989C102.468 107.34 103.296 107.545 104.173 107.551C107.284 107.569 109.834 105.142 110.019 102.07C128.712 88.8017 125.721 75.2339 145.015 69.9384C189.559 65.006 202.875 58.8213 202.728 47.7683" fill="#F6F4C7"/>
<path d="M163.635 9.06827C142.916 8.9443 118.5 17.9229 103.44 23.4611C98.0204 25.4551 94.106 26.8941 91.6692 27.4468C86.5855 28.5972 78.8894 28.7315 69.9776 28.8865C50.7397 29.2223 26.7978 29.6392 15.3606 40.2427C1.82733 52.7878 5.55663 74.7984 9.16281 96.0852C9.95394 100.755 10.7009 105.166 11.2598 109.46C12.4594 118.677 10.0646 128.955 7.74868 138.896C3.90435 155.398 0.584242 169.649 13.5919 175.644C29.4042 182.925 46.6734 151.74 55.9473 134.983C59.2446 129.023 61.6275 124.719 63.3204 123.044C66.6656 119.736 70.9412 118.079 77.4126 115.569C83.3177 113.281 90.6672 110.431 100.7 105.069C101.306 104.746 102.032 104.726 102.654 105.021C103.141 105.251 103.656 105.369 104.186 105.373C106.122 105.385 107.731 103.877 107.847 101.94C107.887 101.28 108.222 100.676 108.761 100.294C116.654 94.6912 120.574 88.9618 124.032 83.9084C128.568 77.2794 132.852 71.0187 144.439 67.8374C144.551 67.8086 144.663 67.7857 144.775 67.7747C191.218 62.6319 200.663 56.0687 200.553 47.7993C200.479 42.4743 199.889 37.6289 198.798 33.3983C198.547 32.4323 198.99 31.4214 199.86 30.9439C201.098 30.2665 201.541 28.0098 200.826 26.0137C200.427 24.8972 199.388 23.0914 196.947 23.56C196.129 23.7157 195.296 23.391 194.794 22.7225C194.3 22.0532 194.227 21.158 194.61 20.4179C195.458 18.7855 194.824 16.34 193.135 14.7276C192.369 13.9941 190.282 12.4495 187.628 13.9911C186.89 14.4191 185.969 14.3756 185.276 13.8812C184.575 13.386 184.236 12.5292 184.398 11.6924C184.686 10.2084 183.042 6.4198 179.945 4.92472C176.297 3.16768 172.869 5.92243 170.637 8.54508C170.182 9.08156 169.508 9.36126 168.792 9.30223C167.106 9.15538 165.382 9.07934 163.635 9.06827V9.06827ZM18.5053 181.146C16.2897 181.132 14.0431 180.645 11.7729 179.599C-4.45895 172.12 -0.407455 154.727 3.51134 137.907C5.73949 128.344 8.04285 118.457 6.94574 110.023C6.39791 105.812 5.65765 101.44 4.87241 96.8135C1.25075 75.4294 -2.8553 51.1931 12.4041 37.0489C25.0607 25.3156 49.9235 24.8817 69.9016 24.5334C78.5731 24.3821 86.0619 24.2507 90.7092 23.1999C92.8695 22.7092 96.8716 21.2377 101.938 19.3744C118.344 13.3432 145.647 3.30788 168.075 4.87896C173.929 -1.41053 179.171 -0.283661 181.833 1.00184C185.232 2.64081 187.62 6.01687 188.454 9.10517C191.174 8.61739 193.932 9.47047 196.136 11.578C198.37 13.7129 199.506 16.5953 199.329 19.3036C201.858 19.8578 203.908 21.7174 204.925 24.5444C205.987 27.5147 205.692 31.4154 203.355 33.723C204.313 37.9374 204.829 42.644 204.903 47.738C205.08 60.8144 189.515 67.1895 145.427 72.0821C135.502 74.8516 132.021 79.939 127.622 86.3687C124.07 91.5586 120.06 97.4208 112.051 103.288C111.314 106.999 108.037 109.75 104.159 109.727C103.378 109.722 102.612 109.605 101.872 109.377C92.0371 114.571 84.5188 117.484 78.9845 119.63C73.0197 121.942 69.0802 123.47 66.378 126.142C65.1305 127.375 62.6384 131.878 59.7533 137.092C50.3379 154.105 35.3159 181.244 18.5053 181.146" fill="#403428"/>
<path d="M108.6 99.5654C108.58 102.787 105.955 105.384 102.736 105.364C99.5162 105.345 96.9223 102.717 96.9415 99.4953C96.9614 96.2734 99.5863 93.6773 102.805 93.6965C106.025 93.7157 108.619 96.3443 108.6 99.5654Z" fill="#F6F4C7"/>
<path d="M78.5456 57.7506C77.2951 59.0435 77.0577 60.7851 77.2641 62.3222C77.5067 63.8763 78.23 65.2924 79.2799 66.2599C80.3107 67.2613 81.6658 67.7277 83.0844 67.8649C84.5155 68.0088 86.0352 67.679 87.5348 67.262L89.6627 66.6717L89.7859 68.8862C89.8323 69.7238 90.2585 70.4662 90.9597 71.1148C91.649 71.7716 92.623 72.266 93.6501 72.5095C94.6779 72.739 95.7669 72.8209 96.7431 72.5597C97.7104 72.2985 98.5613 71.8026 99.1829 70.9923L100.209 69.6559L101.226 70.6809C101.808 71.2683 102.538 71.7332 103.342 72.0527C104.15 72.3678 105.039 72.4741 105.905 72.3752C106.778 72.28 107.595 71.8793 108.243 71.2159C108.882 70.5444 109.296 69.5865 109.48 68.5556C109.644 69.5814 109.577 70.7303 109.015 71.7576C108.483 72.7988 107.456 73.5914 106.329 73.9987C105.191 74.4179 103.948 74.4474 102.763 74.2326C101.571 74.0208 100.429 73.4954 99.4483 72.7309L101.49 72.4195C100.716 73.8946 99.292 75.0849 97.7134 75.6118C96.1429 76.1572 94.4766 76.2642 92.9054 75.9284C91.3364 75.5993 89.8139 74.9256 88.5243 73.7869C87.2466 72.6638 86.2999 70.8772 86.2659 69.0249L88.517 70.6484C86.6752 71.1517 84.6756 71.3982 82.6458 71.0322C80.6219 70.7266 78.6289 69.6072 77.3615 67.9653C76.0977 66.3204 75.5337 64.2719 75.7158 62.3436C75.8684 60.4412 76.8763 58.4886 78.5456 57.7506" fill="#403428"/>
<path d="M26.1363 50.6943C23.6973 51.151 22.3753 53.1561 21.9638 55.1625C21.5473 57.1897 21.8842 59.3843 22.9467 60.841C23.9737 62.3169 25.6379 62.9331 27.591 62.8703C29.5419 62.7958 31.644 62.1435 33.6679 61.2675L35.2354 60.5886L35.9381 62.0313C36.5294 63.2459 37.4193 64.265 38.5769 64.9521C39.722 65.6612 41.1398 66.0147 42.5849 65.9741C44.0359 65.9653 45.5084 65.5284 46.7913 64.7167C48.0595 63.8887 49.113 62.6165 49.6417 60.9974C49.7117 62.6888 49.0091 64.5012 47.7188 65.8088C46.458 67.1563 44.7084 68.0153 42.857 68.3798C40.9975 68.7163 38.989 68.5141 37.1708 67.6943C35.3512 66.87 33.8316 65.3786 32.8672 63.6496L35.1373 64.4134C32.8989 65.5033 30.4385 66.4295 27.6551 66.4715C26.2741 66.4981 24.801 66.2317 23.4458 65.5683C22.0966 64.8967 20.9368 63.7869 20.2444 62.4911C19.5175 61.2063 19.2402 59.7813 19.2159 58.4213C19.1827 57.0539 19.4806 55.7145 20.0233 54.4984C20.5475 53.2786 21.4116 52.1864 22.5021 51.4411C23.6029 50.6994 24.961 50.4338 26.1363 50.6943" fill="#403428"/>
<path d="M44.544 67.2573C44.3811 67.9185 44.3951 68.8173 44.6303 69.6423C44.8618 70.4769 45.2821 71.2828 45.897 71.9624C46.509 72.645 47.3215 73.1911 48.252 73.5623C49.1891 73.9268 50.225 74.0803 51.2845 74.1512C50.2552 74.3792 49.1743 74.5415 48.0551 74.4478C46.9432 74.346 45.7982 74.0102 44.7697 73.383C43.7382 72.7609 42.8423 71.865 42.1714 70.8053C41.5026 69.7368 41.0433 68.5317 40.9216 67.0935L44.544 67.2573" fill="#403428"/>
<path d="M21.7502 102.043C20.0205 103.292 18.9123 104.687 18.5613 106.172C18.217 107.654 18.4913 109.184 19.1593 110.461C19.8406 111.735 20.9001 112.742 22.3946 113.264C23.9017 113.817 25.7523 113.759 27.875 113.647C26.4129 115.115 24.3249 116.188 21.9043 116.075C19.4874 115.984 17.0727 114.382 15.9535 112.152C14.7863 109.959 14.7244 107.177 15.9645 105.018C16.3398 104.522 16.6672 103.999 17.1147 103.603C17.6087 103.253 18.0305 102.836 18.5606 102.611C19.1129 102.427 19.6046 102.162 20.151 102.1C20.7025 102.049 21.237 102.019 21.7502 102.043" fill="#403428"/>
<path d="M53.5098 143.891C53.4825 148.464 49.7568 152.148 45.1885 152.121C40.6208 152.093 36.9394 148.364 36.9667 143.792C36.9947 139.219 40.7197 135.536 45.2888 135.564C49.8564 135.591 53.5378 139.32 53.5098 143.891Z" fill="#F6F4C7"/>
<path d="M64.9923 122.598C64.9724 125.898 62.2834 128.557 58.9869 128.537C55.6897 128.517 53.0332 125.826 53.0531 122.526C53.073 119.226 55.762 116.567 59.0585 116.587C62.3557 116.607 65.0122 119.298 64.9923 122.598Z" fill="#F6F4C7"/>
<path d="M25.6282 144.221C25.6172 146.012 24.1573 147.456 22.3678 147.445C20.5784 147.434 19.1362 145.973 19.1473 144.182C19.1576 142.391 20.6175 140.948 22.4062 140.959C24.1964 140.969 25.6385 142.43 25.6282 144.221" fill="#403428"/>
<path d="M54.544 120.395C54.5277 123.041 52.3726 125.173 49.7293 125.156C47.0861 125.14 44.956 122.983 44.9723 120.338C44.9877 117.693 47.1436 115.561 49.7869 115.577C52.4301 115.593 54.5602 117.75 54.544 120.395Z" fill="#403428"/>
<path d="M36.918 146.939C36.9091 148.402 35.7169 149.581 34.2548 149.572C32.7927 149.564 31.6152 148.37 31.6233 146.907C31.6322 145.444 32.8244 144.265 34.2872 144.274C35.7486 144.282 36.9268 145.476 36.918 146.939" fill="#403428"/>
<path d="M34.193 159.933C34.1783 162.327 32.2281 164.255 29.8377 164.24C27.4459 164.226 25.5193 162.274 25.534 159.88C25.548 157.487 27.4982 155.559 29.8893 155.573C32.2804 155.588 34.207 157.54 34.193 159.933Z" fill="#403428"/>
<path d="M26.0832 167.975C26.0751 169.324 24.975 170.413 23.6257 170.405C22.2765 170.397 21.189 169.296 21.1978 167.945C21.2059 166.595 22.306 165.507 23.6552 165.515C25.0038 165.523 26.0913 166.624 26.0832 167.975Z" fill="#403428"/>
<path d="M51.5278 131.654C51.5212 132.701 50.6681 133.545 49.6219 133.539C48.5757 133.532 47.7322 132.678 47.7388 131.631C47.7454 130.584 48.5985 129.74 49.6447 129.746C50.691 129.752 51.5337 130.607 51.5278 131.654Z" fill="#403428"/>
<path d="M61.82 122.402C61.8104 123.964 60.5378 125.222 58.9776 125.213C57.4182 125.203 56.1611 123.929 56.17 122.368C56.1796 120.806 57.4522 119.548 59.0124 119.558C60.5718 119.567 61.8289 120.84 61.82 122.402Z" fill="#403428"/>
<path d="M67.366 112.106C67.3564 113.622 66.1214 114.844 64.6077 114.835C63.0933 114.825 61.873 113.59 61.8819 112.073C61.8907 110.558 63.1265 109.337 64.6409 109.346C66.1546 109.355 67.3748 110.591 67.366 112.106Z" fill="#403428"/>
<path d="M74.1565 101.994C74.1454 103.854 72.6302 105.353 70.7715 105.342C68.9134 105.33 67.4153 103.814 67.4271 101.953C67.4381 100.094 68.9533 98.595 70.8121 98.606C72.6701 98.6171 74.1683 100.134 74.1565 101.994Z" fill="#403428"/>
<path d="M82.5706 109.431C82.5618 110.857 81.3998 112.006 79.9761 111.997C78.5516 111.988 77.4036 110.826 77.4124 109.4C77.4213 107.974 78.5825 106.826 80.007 106.834C81.4308 106.843 82.5787 108.005 82.5706 109.431Z" fill="#403428"/>
<path d="M95.6211 102.368C95.6137 103.722 94.51 104.813 93.157 104.805C91.8041 104.797 90.7144 103.693 90.7232 102.338C90.7306 100.984 91.8343 99.8936 93.1866 99.9017C94.5395 99.9099 95.6292 101.014 95.6211 102.368Z" fill="#403428"/>
<path d="M105.762 99.5482C105.752 101.202 104.405 102.534 102.752 102.524C101.101 102.514 99.77 101.166 99.7796 99.5121C99.7899 97.8591 101.137 96.5271 102.789 96.5367C104.441 96.5463 105.772 97.8952 105.762 99.5482" fill="#403428"/>
<path d="M109.015 89.1234C109.004 91.0339 107.447 92.5733 105.538 92.5622C103.63 92.5504 102.091 90.9918 102.102 89.0813C102.114 87.1707 103.671 85.6314 105.58 85.6432C107.489 85.6543 109.027 87.2128 109.015 89.1234Z" fill="#403428"/>
<path d="M49.6785 143.868C49.6638 146.323 47.6635 148.301 45.2112 148.286C42.7596 148.271 40.7829 146.27 40.7984 143.815C40.8124 141.36 42.8128 139.383 45.2651 139.397C47.7181 139.413 49.6933 141.415 49.6785 143.868" fill="#403428"/>
<path d="M106.325 40.6545C105.826 38.6709 105.926 36.3693 107.051 34.3451C108.146 32.3062 110.24 30.8259 112.503 30.2097C114.779 29.5891 117.243 29.775 119.456 30.6901C121.659 31.6088 123.621 33.3806 124.616 35.6372L121.476 35.5701C122.349 34.0101 123.729 32.6146 125.419 31.8752C127.095 31.1055 128.962 31.0022 130.652 31.3505C132.328 31.7498 133.939 32.6021 134.961 34.0064C136.03 35.3694 136.234 37.2984 135.524 38.6532C135.587 37.1028 134.878 35.818 133.863 35.0425C132.83 34.2706 131.553 33.8721 130.299 33.8492C129.046 33.7791 127.836 34.1274 126.853 34.7052C125.86 35.2948 125.126 36.1833 124.583 37.2312L123.037 40.2133L121.442 37.164C120.709 35.7642 119.508 34.6491 118.018 33.9769C116.541 33.2825 114.813 33.0316 113.152 33.2493C111.483 33.4507 109.893 34.1997 108.682 35.4897C107.456 36.784 106.746 38.6363 106.325 40.6545" fill="#403428"/>
<path d="M173.822 31.0221C174.947 29.2548 176.856 28.0615 178.92 27.4483C180.992 26.8535 183.329 26.841 185.504 27.6881C187.679 28.4954 189.589 30.3765 190.289 32.577C191.012 34.7746 190.732 37.0098 189.847 38.8606C189.228 36.8681 188.667 35.1244 187.716 33.8086C186.802 32.4899 185.615 31.6346 184.184 31.0664C182.754 30.5048 181.095 30.2532 179.362 30.2562C177.615 30.251 175.821 30.5012 173.822 31.0221Z" fill="#403428"/>
<path d="M153.854 15.2974C151.025 3.30578 172.215 -3.34015 174.652 13.4879L153.854 15.2974Z" fill="#F6F4C7"/>
<path d="M153.854 15.2974C153.062 14.02 152.713 12.4349 152.811 10.8092C152.927 9.18499 153.556 7.57109 154.514 6.20516C156.454 3.46222 159.594 1.68822 162.948 1.27866C166.286 0.818923 170.037 2.04167 172.263 4.65104C173.378 5.92621 174.11 7.43237 174.493 8.94885C174.829 10.4852 174.896 12.0106 174.652 13.4879C173.941 12.1567 173.332 10.8977 172.538 9.81222C171.75 8.73482 170.883 7.82271 169.92 7.14676C168.012 5.78599 165.757 5.3329 163.459 5.60151C161.171 5.88266 158.888 6.84421 157.104 8.42414C155.297 9.98711 154.059 12.2888 153.854 15.2974Z" fill="#403428"/>
<path d="M169.503 13.8958C170.052 12.8421 171.111 12.0502 172.333 11.7078C173.547 11.3551 175 11.4621 176.183 12.1986C177.372 12.935 178.087 14.225 178.308 15.4463C178.536 16.686 178.323 17.8955 177.873 18.9744C177.512 17.8394 177.276 16.7945 176.848 15.8942C176.42 15.0013 175.855 14.3069 175.147 13.8523C174.428 13.4162 173.548 13.1926 172.58 13.2051C171.612 13.2236 170.595 13.4501 169.503 13.8958Z" fill="#403428"/>
<path d="M186.536 12.1077C185.253 13.5519 181.508 18.4282 181.508 18.4282L186.536 12.1077Z" fill="#F6F4C7"/>
<path d="M188.166 13.5511L181.508 18.4282L184.907 10.6643L188.166 13.5511Z" fill="#403428"/>
<path d="M196.542 21.4216C194.219 23.1771 190.96 25.7429 190.96 25.7429L196.542 21.4216Z" fill="#F6F4C7"/>
<path d="M197.847 23.1594L190.96 25.7429L195.229 19.6844L197.847 23.1594Z" fill="#403428"/>
<path d="M200.907 32.8545C198.466 32.3202 196.055 31.8214 196.055 31.8214L200.907 32.8545Z" fill="#F6F4C7"/>
<path d="M200.442 34.9812L196.055 31.8213L201.371 30.7277L200.442 34.9812Z" fill="#403428"/>
</svg>