  
<svg width="185" height="400" viewBox="0 0 185 400" fill="none" xmlns="http://www.w3.org/2000/svg">
<path d="M59.0466 30.2008C60.9808 29.7129 63.0514 29.4968 65.0563 30.0152C66.0522 30.283 67.0219 30.7364 67.8213 31.3754C68.6468 32.0039 69.3152 32.8073 69.8132 33.6797C68.3717 32.277 66.7467 31.1845 64.8728 30.7232C63.0251 30.218 61.0464 30.2803 59.0466 30.2008V30.2008ZM59.1619 32.7079C59.3048 32.4043 59.5904 32.1776 59.9442 32.0848C60.2207 32.0145 60.6794 31.9787 61.2429 31.9787C62.763 31.9787 64.9514 32.2385 65.8949 32.7927C68.3192 34.214 68.9089 36.4149 69.0399 37.0553C69.1972 37.9118 69.0662 38.4567 68.9089 38.6635C68.5682 39.1129 67.6902 39.4139 66.5894 39.4696C64.7548 39.5597 62.2782 38.9697 60.8367 37.4464C58.9169 35.3993 58.7111 33.6572 59.1619 32.7079V32.7079ZM68.3717 29.164C66.1964 27.8846 60.2993 27.5531 58.6181 27.988C57.8174 28.1975 57.1649 28.7225 56.8294 29.4318C55.9252 31.3397 56.4021 34.7431 59.5078 38.0417C61.7277 40.3977 65.3184 41.2117 67.9785 41.2117C68.1882 41.2117 68.3848 41.2064 68.5945 41.1958C70.7829 41.0871 72.4733 40.46 73.2333 39.4735C73.7182 38.8398 73.8623 37.6466 73.6002 36.2823C73.3905 35.2097 72.4078 31.5227 68.3717 29.164" fill="#797171"/>
<path d="M101.932 237.024L102.05 209.812C102.168 200.74 102.207 191.669 102.404 182.599C102.731 164.458 103.19 146.316 104.094 128.175C104.985 146.316 105.457 164.458 105.771 182.599C105.981 191.669 106.02 200.74 106.138 209.812L106.256 237.024L106.138 264.236C106.02 273.306 105.981 282.378 105.784 291.449C105.47 309.59 104.998 327.731 104.094 345.874C103.19 327.731 102.718 309.59 102.404 291.449C102.207 282.378 102.168 273.306 102.037 264.236L101.932 237.024ZM158.935 368.993C152.069 374.225 144.233 378.166 136.082 381.036C127.918 383.932 119.426 385.795 110.869 386.917C102.299 387.983 93.6499 388.318 85.0404 387.891C76.4309 387.488 67.8606 386.312 59.5106 384.269C68.0179 385.474 76.5487 386.067 85.0927 386.181C93.6236 386.258 102.155 385.834 110.594 384.744C119.046 383.68 127.407 381.94 135.557 379.417C143.669 376.858 151.597 373.519 158.935 368.993ZM159.433 360.028C160.705 359.296 161.963 358.542 163.208 357.759L164.216 357.128C168.528 354.364 172.656 351.297 176.587 347.906C169.891 356.085 161.281 362.689 151.964 367.772C149.605 368.968 147.26 370.261 144.835 371.327C142.372 372.33 139.947 373.428 137.458 374.355C134.955 375.21 132.439 376.085 129.896 376.846C127.341 377.522 124.786 378.258 122.204 378.882C119.61 379.389 117.015 379.926 114.407 380.395C111.786 380.754 109.165 381.159 106.545 381.48L98.6295 382.071C95.9824 382.147 93.3484 382.181 90.7014 382.201C80.1524 382.068 69.6035 380.74 59.5106 377.854C69.9311 378.943 80.3228 379.283 90.649 378.782C90.898 378.762 91.147 378.747 91.409 378.729L101.788 377.847L104.015 377.592C110.817 376.431 115.914 371.419 115.914 364.318V121.709C115.914 121.709 119.465 121.813 130.866 118.779C111.537 120.925 94.8162 112.613 94.8162 105.152C94.8162 88.64 105.391 86.5187 119.754 80.5764C111.432 82.2417 102.954 83.0014 94.5016 83.0279C82.8388 82.9311 71.1236 81.7617 59.8329 78.7614C54.1968 77.2407 48.6536 75.3474 43.3503 72.9066C38.1073 70.3557 33.0294 67.3488 28.7194 63.4456C33.53 66.6819 38.6826 69.2421 44.0632 71.1645C49.4098 73.1691 54.9293 74.662 60.5091 75.7611C66.1047 76.8005 71.7263 77.7432 77.4005 78.1807C83.0747 78.6554 88.762 78.7946 94.4493 78.6448C97.2929 78.6501 100.123 78.5015 102.967 78.3584C105.798 78.1502 108.628 77.8917 111.446 77.5814C117.107 77.0087 122.715 76.0501 128.271 74.8131C133.815 73.543 139.279 71.8605 144.508 69.5788C149.749 67.3076 154.637 64.3405 159.25 60.8072C157.651 63.3276 155.555 65.547 153.143 67.252C151.977 68.127 150.745 68.9119 149.5 69.6491C164.413 66.8967 165.344 73.3004 167.086 77.8493C171.896 90.3822 161.569 105.784 147.758 113.542C159.814 108.816 168.174 101.825 172.472 97.5946L175.735 94.0759C175.801 93.9977 175.84 93.9486 175.84 93.9486V93.9645L177.648 92.0182L176.928 265.989L171.987 102.338C168.358 104.842 164.675 107.166 161.438 109.119C155.148 112.924 151.283 119.774 151.283 127.188V354.339C151.283 358.8 155.424 361.604 159.433 360.028V360.028ZM11.0272 66.5215C12.3678 63.9733 14.0033 61.6358 15.851 59.5265C17.6803 57.4038 19.7062 55.492 21.8605 53.7698C18.6775 58.2842 15.7527 62.9139 13.9548 67.8645C13.0886 70.3412 12.3835 72.8416 12.1608 75.3925C12.0441 76.6639 11.9747 77.9327 12.0127 79.2016C12.0468 80.4465 12.1844 81.6424 12.4426 82.8396C13.4726 87.6231 16.2886 91.9679 19.8228 95.6682C23.3859 99.3765 27.7208 102.422 32.3204 104.983C36.9095 107.586 41.8197 109.689 46.8662 111.411C51.9048 113.181 57.098 114.552 62.3568 115.642C72.8926 117.854 83.7038 118.845 94.6065 119.152C83.7824 120.481 72.7354 120.454 61.7933 118.981C56.3393 118.224 50.9142 117.079 45.5755 115.532C40.259 113.915 35.0331 111.888 30.0351 109.276C26.9228 107.603 23.8956 105.701 21.0625 103.492L18.9501 308.638L16.801 99.757C16.6176 99.5767 16.4288 99.4044 16.2466 99.2201C14.264 97.2287 12.4517 94.943 10.9932 92.4213V339.699C10.9932 361.688 40.6338 375.812 40.6338 375.812C28.0852 371.22 21.0834 368.316 13.8721 359.633C11.0364 356.219 6.20228 350.73 6.20228 341.166V85.5483C6.20228 83.1485 6.62948 78.6275 8.33697 73.6716C8.9437 71.1618 9.83863 68.7462 11.0272 66.5215V66.5215ZM139.2 384.085C140.786 383.508 142.385 382.942 143.984 382.388C142.45 383.085 140.891 383.777 139.332 384.447L134.575 386.276L129.726 387.854L124.825 389.236C118.234 390.939 111.498 392.016 104.736 392.723C97.9743 393.309 91.16 393.515 84.372 393.183L79.3006 392.839L74.2294 392.337L69.1972 391.616C67.5199 391.337 65.8556 391.023 64.1914 390.706L69.2497 391.231L74.2949 391.623L79.3531 391.919L84.4113 392.058C91.16 392.158 97.8957 391.964 104.605 391.269C111.315 390.69 117.985 389.603 124.563 388.146L129.49 386.969L134.365 385.599L139.2 384.085ZM19.815 39.7679C19.815 20.9691 52.4211 5.6758 92.4967 5.6758C132.583 5.6758 165.186 20.9691 165.186 39.7679C165.186 58.5653 132.583 73.8585 92.4967 73.8585C52.4211 73.8585 19.815 58.5653 19.815 39.7679ZM168.659 49.1877C170.048 46.1755 170.795 43.0254 170.795 39.7679C170.795 17.469 136.409 -2.13549e-05 92.4967 -2.13549e-05C48.5973 -2.13549e-05 14.205 17.469 14.205 39.7679C14.205 43.0254 14.9598 46.1755 16.3502 49.1877C6.33325 57.9474 0 68.318 0 79.4601V344.886L0.0550278 345.527C5.78292 377.6 43.7972 400 92.4967 400C139.331 400 176.469 378.221 184.882 345.805L185 345.352V79.4601C185 68.318 178.671 57.9474 168.659 49.1877" fill="#850000"/>
<path d="M30.1648 43.0891C30.1648 37.4517 35.4525 33.0341 40.1255 30.2314L40.7099 29.8933C41.6063 29.3736 42.5589 28.871 43.5535 28.3792C43.4185 29.0925 43.3701 29.8495 43.4251 30.6596C43.9598 38.6052 53.7762 49.0394 58.0076 50.3997C61.5183 51.5293 65.8557 51.2787 70.8747 50.9896C73.8887 50.816 77.309 50.6185 80.9126 50.7113C84.8308 50.812 88.5655 51.459 92.1692 52.0834C96.0611 52.7556 100.045 53.4477 104.264 53.4477C105.457 53.4477 106.689 53.392 107.934 53.2621C111.21 52.9214 113.031 51.4603 114.04 49.9926C116.465 50.3585 119.308 50.4554 122.702 50.0576C137.628 48.3049 144.377 37.937 136.671 31.0017C130.565 25.5088 111.118 22.4581 99.5863 23.0574C98.1841 22.25 96.9392 21.6984 95.8646 21.4266C92.9554 20.6908 86.0364 21.5884 79.3269 22.4555C75.3694 22.9686 71.6217 23.4525 69.6429 23.4525C67.6642 23.4525 65.3185 23.2562 62.8418 23.0468C61.7934 22.9593 60.7057 22.8691 59.5892 22.7882C69.4332 20.3872 80.8339 19.0706 92.4968 19.0706C126.293 19.0706 154.847 30.0683 154.847 43.0891C154.847 52.9413 138.598 61.9661 114.42 65.5458L112.769 65.7778C111.917 65.8931 111.066 66.0018 110.188 66.096C108.222 66.328 106.374 66.507 104.513 66.6462C103.989 66.69 103.478 66.7257 102.941 66.7615C100.936 66.8941 98.9179 66.9869 96.9129 67.0373C96.0874 67.0638 95.2618 67.0771 94.4362 67.0917L94.2659 67.0943C93.6762 67.101 93.0996 67.101 92.51 67.101C91.9334 67.089 91.3175 67.1009 90.7409 67.0956L90.5704 67.0917C89.7317 67.0771 88.9193 67.0638 88.0806 67.0373C86.0232 66.9843 83.979 66.8902 82.0133 66.7536C81.5154 66.7245 81.0174 66.69 80.5063 66.6449C78.5931 66.5017 76.693 66.32 74.8453 66.1039C73.9673 66.0018 73.1024 65.8931 72.2506 65.7778L70.5733 65.5471C46.4063 61.9661 30.1648 52.9413 30.1648 43.0891V43.0891ZM64.5716 48.1286C62.5011 48.0093 60.3782 47.7759 58.4453 47.0082C60.4699 47.455 62.5273 47.5332 64.5716 47.4126C66.6289 47.3304 68.6863 47.1289 70.7436 46.9632C74.8584 46.6079 79.0256 46.3639 83.219 46.6396C87.4123 46.9446 91.4878 47.8249 95.5239 48.5913C99.5732 49.347 103.635 49.9516 107.79 49.8084C103.688 50.519 99.4551 50.2883 95.3535 49.7142C91.2256 49.1693 87.1896 48.3619 83.1141 48.0954C79.0518 47.8024 74.937 47.9774 70.8092 48.102C68.7387 48.1683 66.6551 48.2174 64.5716 48.1286V48.1286ZM62.6059 25.9595C65.135 26.173 67.5463 26.3746 69.6429 26.3746C71.8052 26.3746 75.6315 25.88 79.6938 25.3537C85.5253 24.5993 92.785 23.6646 95.1569 24.2599C96.7687 24.6696 99.0882 25.9994 101.866 28.1061C104.291 29.949 106.387 32.1909 108.117 34.7723C112.232 40.9307 112.075 43.5174 111.616 44.5131C111.21 45.3881 110.122 45.9251 108.366 46.1067C103.151 46.6463 98.4068 45.8243 93.3878 44.9559C89.6793 44.3129 85.8398 43.6486 81.712 43.5425C81.0436 43.5253 80.3884 43.5174 79.7463 43.5174C76.7585 43.5174 73.9542 43.6791 71.4381 43.8249C66.6944 44.098 62.6058 44.3327 59.6063 43.3676C56.11 42.2419 47.4901 31.6646 48.0169 27.0494C48.0693 26.588 48.1675 25.7289 50.0073 25.5844C54.1929 25.2516 58.6589 25.6294 62.6059 25.9595V25.9595ZM152.462 29.4796C152.462 30.9937 149.815 29.7528 147.666 28.5343C136.213 21.0355 115.993 16.1472 92.4968 16.1472C77.5448 16.1472 63.497 18.1373 51.8971 21.9C51.4503 22.0458 51.0334 22.2036 50.597 22.3534C49.6208 22.4568 48.6629 22.7007 47.7391 23.1448C47.6421 23.1926 47.5608 23.2496 47.4678 23.2987C47.3302 23.3689 47.1952 23.4418 47.0694 23.5227C46.8689 23.6407 46.671 23.7601 46.4849 23.8887C43.9938 24.9029 41.6862 25.9861 39.6393 27.1488L39.4375 27.1409L39.1099 27.4471C38.4757 27.817 37.8741 28.1962 37.2884 28.5794C35.3136 29.7527 32.6926 31.0825 32.6926 29.4796C32.6926 26.9221 36.3029 23.2695 45.9922 16.6444C32.1646 22.1015 23.4856 29.9609 23.4856 38.706C23.4856 44.46 27.2465 50.1067 33.7633 54.9737C40.9457 61.1335 53.7134 66.0006 70.1671 68.4387L71.8575 68.6747C72.7355 68.7927 73.6134 68.9041 74.5176 69.0062C76.3916 69.2262 78.3442 69.4132 80.2705 69.5577C80.7947 69.6028 81.3189 69.6413 81.8299 69.6704C83.8349 69.8083 85.9053 69.9051 88.002 69.9568C88.8407 69.9859 89.6794 69.9992 90.5181 70.0138L90.7015 70.0177C91.2912 70.0244 91.894 70.0244 92.4968 70.0244C93.0996 70.0244 93.7023 70.0244 94.3051 70.0151L94.4756 70.0138C95.3274 69.9992 96.166 69.9859 96.9915 69.9568C99.0227 69.9064 101.093 69.8123 103.124 69.677C103.675 69.6399 104.212 69.6028 104.749 69.559C106.623 69.4185 108.51 69.2342 110.515 68.9996C111.393 68.9041 112.271 68.7927 113.162 68.6734L114.84 68.4374C130.63 66.0986 143.027 61.5193 150.352 55.7069C157.52 50.7218 161.674 44.8087 161.674 38.706C161.674 29.9609 152.986 22.1015 139.161 16.6444C148.858 23.2695 152.462 26.9221 152.462 29.4796" fill="#797171"/>
<path d="M91.4875 37.131C89.0632 37.3232 87.0452 36.7916 86.9797 35.9417C86.9142 35.0905 88.8273 34.2433 91.2516 34.0498C93.6628 33.8562 95.6809 34.3892 95.7464 35.2391C95.8119 36.0902 93.9118 36.9361 91.4875 37.131ZM85.525 37.8522C85.0533 37.713 84.5816 37.432 84.2933 36.8963C83.9919 36.3368 84.2671 35.6116 84.6602 35.3014C85.0402 34.9487 85.512 34.8002 85.9706 34.73C85.6299 35.0548 85.3023 35.3584 85.0796 35.6792C84.8699 36.012 84.7913 36.313 84.9485 36.5781C85.0796 36.8605 85.394 37.119 85.7478 37.3285C86.1016 37.5327 86.508 37.7183 86.9404 37.9106C86.4817 38.0007 85.9968 38.0007 85.525 37.8522V37.8522ZM82.0656 35.8715C79.4054 32.9494 80.7945 31.4883 83.0091 30.4383C83.0091 30.4383 83.009 31.6262 83.2318 32.3462C83.4545 33.0674 84.765 33.5433 84.765 33.5433C84.765 33.5433 82.5111 34.2275 82.0656 35.8715V35.8715ZM104.421 36.4601C104.238 38.307 103.216 41.1071 94.6064 39.7681C99.7564 37.9106 99.6646 32.0969 92.4965 31.4273C95.694 29.3577 96.2444 27.5467 93.807 27.3027C90.2295 26.9448 78.9598 28.2016 78.1866 30.8798C77.4004 33.5579 79.5626 40.6206 91.54 41.5327C103.517 42.4462 105.562 40.7637 104.421 36.4601" fill="#797171"/>
<path d="M102.247 34.5056C101.932 33.3442 101.29 32.497 100.569 31.7254C99.8224 30.9855 98.9968 30.32 97.8567 29.966C98.1843 31.1261 98.8264 31.9733 99.534 32.7475C100.281 33.4887 101.107 34.1543 102.247 34.5056" fill="#797171"/>
<path d="M44.8459 40.8469C44.1645 43.2135 44.0676 45.8996 45.019 48.3868C45.9821 50.8582 47.835 52.9158 49.9514 54.3915C52.0585 55.9148 54.4317 56.9317 56.8089 57.7551C58.0092 58.1422 59.2214 58.4803 60.444 58.7547C61.0468 58.9032 61.6627 59.0371 62.2917 59.1551L63.2352 59.3407C63.5497 59.3871 63.8643 59.3925 64.1788 59.4203C69.2239 59.83 74.1642 59.5807 79.0521 58.7282C83.9138 57.8876 88.6969 56.5724 93.1655 54.4989C88.3562 55.4349 83.5599 56.1044 78.7769 56.4995C73.9938 56.8774 69.1584 56.9622 64.5064 56.5287C62.2131 56.2914 59.8805 55.7358 57.6239 55.0875C55.3543 54.4737 53.1816 53.588 51.1885 52.4531C49.2137 51.297 47.4524 49.7723 46.3254 47.7677C45.1513 45.7737 44.8106 43.3275 44.8459 40.8469" fill="#797171"/>
</svg>